<mxfile host="app.diagrams.net" agent="Mozilla/5.0 (Windows NT 10.0; Win64; x64) AppleWebKit/537.36 (KHTML, like Gecko) Chrome/126.0.0.0 YaBrowser/24.7.0.0 Safari/537.36" version="24.7.8">
  <diagram name="Страница — 1" id="scHtx7sBAP55FIpkTVdr">
    <mxGraphModel dx="2560" dy="2128" grid="1" gridSize="10" guides="1" tooltips="1" connect="1" arrows="1" fold="1" page="1" pageScale="1" pageWidth="827" pageHeight="1169" math="0" shadow="0">
      <root>
        <mxCell id="0" />
        <mxCell id="1" parent="0" />
        <mxCell id="1IgViTsUdd26qkvO1Bmj-1" value="Terralink UI" style="rounded=1;whiteSpace=wrap;html=1;fillColor=#dae8fc;strokeColor=#6c8ebf;" parent="1" vertex="1">
          <mxGeometry x="650" y="-860" width="120" height="60" as="geometry" />
        </mxCell>
        <mxCell id="1IgViTsUdd26qkvO1Bmj-2" value="" style="shape=image;verticalLabelPosition=top;labelBackgroundColor=default;verticalAlign=bottom;aspect=fixed;imageAspect=0;image=data:image/png,iVBORw0KGgoAAAANSUhEUgAAADcAAABBCAYAAAB1oDyaAAAPsUlEQVRoBd2bWVRUZxLHPScTJRm3GYxLTkbJJDFmVcNEnWRczmSSOMY4ZCZRhCAIIuIKKO4GjbtRUVwQUXHFFYkYgztuCAgIJjEmZnHJQx7zmMea86vbdbkwgo0NeZg+555uuu/9un7fv6q++uo2LeT/+NHit2K7deuWZGZmSlJSkgwaNMg9wsLCJC0tTQoLC5vclGaF+/XXXyU9PV26desmLVq08OsIDw+XqqqqJgFtNrj8/Px6odo/9riEPBcqTzz9Ur3A48aNk19++SUgyGaBw/W8SrXr0EX+MWKiJHy8XZbsuyrL9l+VFQer9JnXMzNPyvBJS6TXgHdrXYfigajYpHC44eDBg10Dgx5tLYOjUuTjXaWy8lCVrM6rlrX512Tdp1+4B3+nH76mnwM6fmmuPPXyazVjBAU9cDw2KRyuZIp1eDxEpqzKU4Uwfv2RL2TT0S9l82dfSfaxr2Tr59f14DXv8zmgTALqDvz3WHesdu3ayY0bNxrtok0GRyY0MGJq7tZzaigqYTww249/LbtO3pA9p25I7ulv9Jm/d574Wj8HHEgUBvDtqBR3zJCQkEbHYJPA/fzzz9KxY0c1JOjRNjJ5ZZ4LhsFAAbT39Ddy4Oy3knfupnscLPpW9p9xQIFESS9g38ERLiCx3JhHk8B5E0hYQpq6Ii5mYKgExOHzN+XIxe/k6KXv5bNi5+Dv/Avf6efAewFx0YW5ldKpa3cFbNWqlTCR/j4ChiNd86W4ZOdu3dWdiDFccVvhdXU/wD698J0CFZb8ICdKf3SP4yU/yrHiHxQaRQ2QiWGCSDIjkle66rHg+/sIGM4ba6YacYZ7EU+4IWAAAHWq7JacvnJLzpTf1oPXvP/55RpAlGZiNhZ8qfGHeu06dFbAvn37+ssmAcNRUaDa7x5uKWk7StQYjCLOUAFXxAUBAORsxW05V3lHzlfe0eeiitv6vgEyEUwI7ol6eAHJxRt7lHL+PAKG69Onj8J18rgkRmGcqYYrohhgQF2suuse56/eEQPERYlH3JgERIbFC3DNyOkZrmv6W4cGDMcahHLPhg7SGSZOzCUxEmMxGtVQDLBLVXeluPquXKp2IAHGTVEPlVEb1wSOzEk1k7Ak14XLycnxR7jA3dLWtp4D3tUZNjhm3uAwGuMNDrDL136S4uqfFBb1zvrgiE3gcGniDjiyZvKaAhfO36QSsHIG93L/oc2q3BQPHDsNfx4Bw9ni3e25UHcZaI6Yi1uQ4yr3m7klm03Ua/Voa11wKZ2aI1sOGT3LhSsqKvJHuMBjDv8310xckqvB3xzrXNcer+j3kMD8fQTsllTrBkdSYU1q6grFmyljYmL8ZQtcOb6JnogBxi/IafLasntozfiN2bwGrBxwJSUlLlzw4yFaqZC+cU+SSyC7guGeupL4bswjYDh230uXLnWLZxSclF4gi/ZWutueB93P4Y6UdYwZFBTU6A1rQHCUQV271u5sdfvzMxKVkCLzdlcoINXFg+zE0/ZUyBNPv+h6BKoxkY15PBAcX2JLgMVa2w5d5P2UtTIjp0QiYxMlInqMzNhyThbsqdAkg5v600NhB8DEJMxbJ8HBHVw4vqdz586N6qc0Gq5uE+ihh1tK//fHy9TsSzJnZ7l8tLtCFuRWytipH8uIkZESl7pYZudcUkhclWxKIeztfvE+UKiVnH5Ywj+MkfDIUTJl5UF5KzJF2gY72x2bSDKmP22/RsN5FXvi2Vckcc3nMnPHFZm3q0Lm73FccanP+Dlr9klkdJwMHxEu0YnTZHzaRpmeeUKVAYQD8OT0PIlNTpMREVF67sQ5K2TJ3nJ1ayaKsQdHz5SWj/zeVbJXr173BWwUHDNms/dY1+6SvPmSzNpRrl+OEaiy/ECVrDpULWsOX5OMfKfrtTjriMQlJquSw4ePkA8++MA97O+o2ARJXbhO0g9c0WsZg7EY8+PcSvWIyRnHpWuPUNcG2ogNxaHfcN623WN/6i6TNpx2wHaWycwNR9UITR551Qq1wdfKY/vD1mWbdr+uS/aRSlmdc0yPVTnHJGPPGf2Mczg36+iXwrVMTHpetXxysErwBABROnVLsTz50l9rAdaXZPyCY+E0xUgcXldMnLVCkhdlqREYw9pG6jeo7cev68Z1t6+lx1aIw1p7vOYzNrecyyRwLWOw3cEDAFx2oEZBALs8VZNJ66ta/IIbMGCgCxc1f5fM2O7E2LxtFyQyeoys2F+hRmAMM7/lGAu3A2Ug+844bT32eN6D3TqfsX/j3F0nHUiUZCzGZI/oVZAYTMo8Ix19XTEm/l5tv/vCcUPDVHuq90BJzbmiWZHkMWH2CklZnKXuY2AYteP416oG6uw/+60cKnJ6lWxC88/f1IYRvRJe8x5dL87hXINkDMaiwvEqSAwS33N3lcuEtYXSNriLa1/d0uy+cD179nQvRjUyI+l+fo6j2uqDFeqKzLKBoQBqoBCGA0J/suDS99p2sL4lz7zHZ5xjkFzLGLiqV0HcnrhevO+qxh/JbNSCXa59/fr1qxV+DcJ5VXvh9aEyffsVnTFmDtWmLd6sgU984IrMtoGhBMrUNGF/0PYdzSLvQUuP1gKg2qA9X6MiY5mCCzL2yrw1uZqJSTCmHja9NPA9FxCb7dEg3LBh/9KLWKjHpTvrGRlr/vaLGmurD1VqZiMBEGMkBmbdwAou0lU2KKcRe7LsRzlZdst3OO/RQAKSc7kGFRnDFGTs5Vs/k/iJqRrbddUjwVnoeIvrBuHatGmrF9WNNbLj5LmfuKrhOrgQMYYropiBWYcZIG3G0pC1puwV5z3afjSROBcVcVXGAJAYJMlkfVopEZFRGgKUcWRPU488EPJiP7XV23KvF46tvM3GG1Ez1CXJUqw38VPmyLyMAxrophouREIgbnAvVDCwUz4gOlz0KL0HvUw6Y5yDqoUltPccBUk2ZFNzz9iESbJ8+0lVjwWesg2byN5DEha59ppr1gvnbZPHLNrvJpJFueUyMjJK0vMqJbPASSKmGjONSxE/uBlqKJgPyjrNtPL08HSdAfS21hnD3NPUS52/WmYvz3aXBm9imbj+tAs3c+ZMDbt64bx3bqZuK9NqhPQ/a12+xE2Ypi5JhmTRtVirrZoTW7ggSinY1Tty4epdPWjOOq9r2uqqYNktbeKqe178Xj0Bj+A7lmXlyfiUua5rkliwiYJ9Wk6ZuyzQGeBRL5wVyG2CO+uFDMBAk9MyJGXBOv0CZ5d9Xd0G98GNiBdTTe8N+JqxKAWMdZzpOltb/cJVBxAX9apnsWeuSelG3LHueeMO24i77n3e9MVdUMNw1hf5Q+du7sJNAEfHT5SFW078T7xZIsGdiDXix1SjXe6CVdNKd7rNtNOB5DPOQWGuIfkwBq11XJOxSVYsC1Gj42VV7kUtHKwkY0EHrvebzk0ZckWDyhkctSQXMgBwVPQspsweycTWNgyweHPgnKyIwaaac4/gJymmle5rp7v3C/SGiHPPgOzpJJaauAOO2E6YlCqLNxe4SYUER1Jhves3bIwbd9ykrNct7wXHQAZH5W5wtgQAx2y7cL5EApy5o6oWAFzSrMUyb/Wu+8Jxm8tvOPyaQjkiKkb93ZRjgSVVN5lblt9u0C1nL9skU+evuadbepXzDy64i5tQ5mSfcSoT39bGr4Tiy5QkDVNPY80Xb7xXX0IhflnMmTgmkIlcuH6fTEidf8+E0tfjln7D2VIwY32BRCdM0fqOfVt9SwFpnJKK2CG921IAhCUWB6oGTJMJi3k9SwFwOYXX5ZOc4xKbmKRwVmPiVSwFDwzHbmDa2sMyevw0t6PsXcRZaJtiEXeqlJpMecj3IwBKMMq8jAMlEhk1Wvd3bH+oddkdIECfd2sSit/KJW8t02w0NR24qdrbIGNaUrG4u1f5hbFaU5bf1tvGKFRUQdp3Ur+VX5xj5Zct4HXLL3YefCdJzcovtl+UXylbgYtzs2WDcOG+G/mPtPmjTNlSqstB6sbj8mHsOO1p0MDxuiYza+pZ4YyRpHQtw7yFs++XDFZy4Yq1wO5RelEJEQZ8J3B1C+ekLaXyqr9w3obQ2LWnVHYarrTpqOnYdtDfqKuebXlYFqgwbMtDDALJAg2MA+TsBviM5UMVM7BzN7UQt6IZ1QgDWg7A4ZJaDu5w4m1Sdqn8Zaifyu3du9eVuP/wJDHXjBgVJ3O3nHXVo0tl9wJsQcc9iT9TkKyH4ZRlQKCmczjv8Rnro7uX84CxcNtuHNUou4CzxdtccmJ2qYT6C0c/sFOnTgr40O9aSvhHO1W96PHTJWX1Ad1u4PdWrVibAWOYbVOQuFEVLzotBSC8B+AGxblMCpPDGIyFO3r7KHgMcJZIyJKEzfjNJfLKO34qR23Gns5++tQmuIvumf45PE7CJ3ykpRiuQVcK92RRxwhm2RQkBil6MZgdA0oC6j14T3sn55y9G9fUBcP1rcVH+geOcpCSC4+auLlEEjZdlt7vxLre1mBC0cpTRH+jbJtW73NEaoa6Bl8GILEAoClIBiXJYCgGowagLMjAcvCag88MimuYHCaJyQKMsUlgfJeVgLo0eVSLz7wsvYY0Eg7IuvffgKStTRrmy8hcXgWtKYtLYSgGsx8DlDrUe/Aeh0FxDcmDSWKyUAwwvkN33jvLNKlRzJMhTbXYjcXS80HgAKTKZndO+8wUfPXtkTJ1w4laChKDJBlmHAMxFBWoLlATWGKJg9e8x2ecY1BkRZKH1xUBI85mZJ2RkaPiHHfMLpVxWSUyJvOyxGwolk7P9HZt4y5QvYWzuWXdZ27wt2/f3h2EZMON/njfj7MJeGYawzAQSJQElF0EBxAc9jfuxzmcyzW4IVmRscwV8RLKrEmrDunNTbJjYlaJ4I6A9Q1PdW2y9nqj4YCls8stJFPQnvkp/X8S58vC3aVqGAYCibEYjZsB4D14j89Qm3O5BhfHDVlP2UMCRomFK45btENGTZqn2RGw0RuL5Y3xq4RJxg5+0W737h4IztQkm1olY4D23L3nazI0eprM3HBMjcVoDtwWCA5e2/sAsbQARRYmlnFDsiLJAzAyY1j8LAmLTZGxmy5L9NoiefGtqFqT7P0BTkBwBknapeNkv+AzQHvu0KWbvD4kQmHHpm3WVryBAIPrAURcoRSVB7tr1CLdc7vs7x9OF1oeNmbHJ1+Q1p77BK1aBUndn001CZxB8kzPkNKt7g8BzCh7bvVIa3ny+VAJeT5U+g+L0Z/a83P7Ae/Fy9/C4uX1sHjp0fdN4e6tuZxdW/e5R48e9/ylQ5PDeUGJTZYRb4ata1hj/qZiwkMsFIDi7/rurjYrnBeU18CiLL8X45Yv/ytwPzgmhjYjtW5jH78pnD/GsdSQFCzj+XNNfef8F34ANrE4HpHdAAAAAElFTkSuQmCC;labelPosition=center;align=center;imageBackground=none;" parent="1" vertex="1">
          <mxGeometry x="640" y="-880" width="30.77" height="36.36" as="geometry" />
        </mxCell>
        <mxCell id="1IgViTsUdd26qkvO1Bmj-3" value="" style="rounded=1;whiteSpace=wrap;html=1;strokeColor=#66B2FF;arcSize=2;" parent="1" vertex="1">
          <mxGeometry x="-200" y="-280" width="400" height="300" as="geometry" />
        </mxCell>
        <mxCell id="1IgViTsUdd26qkvO1Bmj-4" value="Среда разработки" style="text;html=1;align=left;verticalAlign=middle;whiteSpace=wrap;rounded=0;fontStyle=1;fontSize=13;" parent="1" vertex="1">
          <mxGeometry x="-180" y="-270" width="150" height="30" as="geometry" />
        </mxCell>
        <mxCell id="1IgViTsUdd26qkvO1Bmj-5" value="" style="group;spacingRight=14;" parent="1" vertex="1" connectable="0">
          <mxGeometry x="-160" y="-230" width="310" height="95" as="geometry" />
        </mxCell>
        <mxCell id="1IgViTsUdd26qkvO1Bmj-6" value="" style="rounded=0;whiteSpace=wrap;html=1;dashed=1;dashPattern=1 4;" parent="1IgViTsUdd26qkvO1Bmj-5" vertex="1">
          <mxGeometry width="310" height="95" as="geometry" />
        </mxCell>
        <mxCell id="1IgViTsUdd26qkvO1Bmj-7" value="" style="shape=image;verticalLabelPosition=bottom;labelBackgroundColor=default;verticalAlign=top;aspect=fixed;imageAspect=0;image=data:image/png,iVBORw0KGgoAAAANSUhEUgAAAEYAAABgCAYAAACg2wSvAAASA0lEQVR4Ae2dB1RU19bHs9bnUxNFfbZnSdS8SMIXU3xPk2CLqIliNIS8F0uM5hmjebaHWIIYYizBALEGFRRFpYlYQIoivZeh16H3MtShV5H/t/bx3Ssg6swwMwxrfXet/7rMLXPP/c0+e59z7rmbl/D/S68EXup1q4ptDAgIgK6uLvT19VFTU6OU0qk0mLS0NAbkpZdeAqdRo0bh0KFDaGlpUSgglQQjEomwdetWHsb48WNx7PBerP7nCn7bhAkTcPr0aYXBUSkwVE3IGoYOHcoAjBw5Art3foesJD8UZoQwed69Au2lWjygadOmwdHRUe6AVAYM/fpkBVyV2bxxDWLDXHkgHBhu7WRnjrmas/njZ86cCU9PT7kB6ncwLi4uoF+dA6L96UKEB9xCYWaoRLpkYYJ3Zmjw52tpaSEiIqLPgPoNDEUaTU1N/obmas6C6y0rFGWFyaRTZkYgX8QBpihGzlvWRelgekYa9emv47KFGYqzIvqsnJQgHDbSB/kmDhA5cXLm0i5KA9NbpDE5aoDi7Ei5Sxjngz16WzB0yBAGiJy5oaGhVG0ghYPpLdLs2bUFuWmhKMmNUqjiBZ7Ysmkdbz3UBjIxMZGoDaRQMD0jDRUyIcoLpXkxSpUgxA26Oto8IIp+lpaWz61dCgFD7YqukWb5ssWICvWAKD+uX+V73xGLtebzgKiMFBV7W+QKhiINtSc4xzdvzoe4d9cOZQWJKiVnJ2vMnvWknFRmKnvXRS5g4uPjoa39xFTV1d/Atct/oLwoWaVFZaSycj8ktYHoXmjpExiKNBs3buS/+C/jx+G46SFUlAgHlMxPHwOVnQBRBKP7kgkMRRoKf0/6NCNhsHcnSvKSUFWaMeDUVFeB+rpqvPfuOwwOVSupwFBXnyINhT3O/Lb98B3SksJRXZY14FRfU4r21ibUVxcj4v4Z/P09denB9Iw0Kz5bhoTYYIgrcgec6sTFaGttRGtzHeKDbPDAbi88bXdLB6ZnpFkwfw58HtxFbVXBgFO9uATtbU1ob2tGeqwHvK8fgJe9gXRgekaaN99Uh4PdZRDtgai2tkYGpCA9HAG3jeFz42fpwDwVaf4yHmdOmaGhRjQg1d7SiI6H7RDlJyH8/ln43zaGn9NhycH0jDSjRo7ET4Y/oqq8CI11FQNOba0NeNjeirrqEkT7XUOw60kEOptKB8bB3r5bpNm5Yytys4VoaqgacGptqUfHwzY0NYiRKnBHuOcFhLqbywZm8OA/sTD1+crPkJaagOZG8YATRRgC0t7WgpyUEET72ULgbd03MNQmGT9GDf4OB9FUX8XCGF1oQKi1AY862pkfKc1PRmLYHcQF3ZAfmAnjRiHozm8MTkNtBdpaGlReDEhHO8TlBUiP90FKpLtiwET5XEDQHVM8uLwHjbVVrFVILUNVEwHpfNQB+gHz0qOQmeCPtFgvxYKJ8rVCmNspPLDei0ZxGR62NauMCMijRx1obWlEaX4K8tOjkJ0SqjwwMX7WCL/3B1zNtyA7zouFPQp9/aWO/wJ52N6G6vIClOQlozArrn/AxAVeQ2zANXjb7Ief3UE01lYwr0+eX3lqR2fnI2YlDTUVqCzNQVlRRv+DSQhxQFKYEyLunYPb2R+QE++DRx0PlaLOzk6QWprrUVNVguqyAtUDkyJwRkqkM3ztD8Lf/hfUi0XsV6T6Lm9xQKjaNtRWoU5cptpg0mI9kJnogzh/W9z9YxOCnIxRlpfEogNFiD6rsxPo7GTtkdbmejQ11KChtlK1wNy+agyPGyfAVSWyGA5MTmowCjIESAi6Aa8r++B5cRfykoOZLyB/IL0eV5lHHR1obW5ES1M9WprqVA9M6P3zGDTof/DnUWow/nkb8zG9gSnOTUBZoRC5KcEIcjoG17NbkBbpiuZ6MfMNXJV40ZqqYlsLAanrJpW0GB3t+Rg6ZDDU1IZB+5O5iA1xespiODAUKcSVhSgrSEHUPQu4nN6Ie5Y7EOdtjdLsWBbBgE50E3OsjxiQ5oYa9CaVBEPtmA1rtKE2/BVQB3PqaxPhct2c+RiuKvUEUycWobG+mv3qVSVZEIY7I+D6Edw0XQ0/OyMII+4y/0EW1NbSjKZ68Qulcj6GwFA75rL5zxg7+vHAt9rwYdBZsQSRQXeZj3keGKoa1MvlVJIdi3SBGx62taCxrhqNdVUSSWXBkPP1d7sIjTdfB4GZPHkytm/fhuMmR/BiMM1sKJHGV0nl+Uloa25gkYZuWFKpVLgW+FyBwPdKt6jk6X4TTY0NqKwogri6Ar+bmWL/Pj1kp8czH9O1KpHFtLU2dVNZfhJamxtQX1MulVQKjMPVc2x+m4v9cT4qiSvyUF9bjIqyVFRXZqKyohgmJr/hlVdewdo1XyFaEML7GAaG4HRRWV4iWpvqUVctkloq0/ItzY3DcTNjvDtDHb8abQOF66wkH/booblJjOamKtCoe2trK6teNNClpqaGiRMnQF9fD4LIUFAjrasIDIXk2qoSqaVSYG5ct8HbGm9g8ccfQWfFIoR427GoVFmaheaGalZNmpvqYWZqjOHDh2HYsGH808kRI0ZgzJgxuH3TkW+biPIS0NJYBzFVRRmkEn0lspjK0nQc/mk7Ro8eiZXLtTD1tUnYo7cJwjjfp6KSqDgLFufO4OMF8zFo0CBmPWRFBEtUUoDmxlqIcmksuRbV5YWySRU6kYWZkaDnurGhN+FwxQyvvToR77+rAe1PP8bUKZNx8ZzZM6NSdaUI165exrJln+LI4YNstJ5G7EW58QxMVVk+ZJVKDDuQ1TTWVyE61AXOjmfxle4yDHvlZSxeNA9/m/kO3lR/AxfOnWBDAdTyZVGprgpN9dW9SpQTz1q4laW5kF0qMh6TmeDFfvGk2AC43bLEKbOf8O4MDYwYoYaln2hh1t/eZw7316MHUS7KZ22TZzXeSnPi0NwgRkVJVp+kMgNVqQJn1k6pLC/CfVdbXLM6gZ3bvsPkSRPx8stDQQ/5lyxeiLFjxmDtmlVwdLBhg9Q0UN1VBIasqawovc/q96HNrsMOhVkCNDXWIS0lDjbW5rhkeZJNFtL86PF8/nlzNaH7xQpoLVwAikrrvl6NwrwMNp5CjbSSrFjWDRAVCNFXqRQYbjymvCQTLc2NSE2OhauzHZxv2eLSRXOsXvUlpk55DWpqw7FyxTLMnfMhDA32ora6lKkkK4aBKc1LQV+lkmCod12UFcOGG9vb21BYkI3wUG8E+LkjOPA+bt+0xYH9uzFu3BjsN9iDmqpipuKsaDTWVqI4J1Eu6tenBF2rEmcxXYcdyovSmMOlxxri6nLkZqcgMTYYackR0Nfbiv0/7oa4opCpODOa+Ry6IXmpX54r0bDDi8DQCB61LarL89FQV8mGJTs6HqKutgr79urBYJ8+20f7izOj0FBTjoLMGLlJxcFko6osl9djSBW4ZHUBFudO89uLMgWoF5chP00gVyn9SaSkFkPtksrS7BeqKD2S9apzU8MgT2WnhCj3Ea2kYMqLMyCJCtMjUFddCroReUtpD/W5oc0X+RhRYSrKitIkUmF6OJv2lZUUCHlLJcAEed/EXSdr1okUFaRAVJAqkQqE4aitKkZmgp9CpJRpIM+ymMAHDvjP7p3YZWKIL9bqgGYwSap8YRhqK4uQHuetEPUrGNNjP6NUXA73OD98c2wnfjn0I0pyEyRSfmooaioLIYzxVJgUOqOKJg49y2LMTH9BQr4Q3skhOOtri2+3r0dxTpxEyk8NgbiiAKlRHgpTSqSb4qaaPQ/McTMjHLb4DRcCHGHiaYVtBv9GYVaMRMpLDYa4PB8pka4KlUImJ9IcvOeBodkO6zeuwnL9tdDa8BncXWxQkBEpkfKSgyAuy0NSuLNC1W9gqK90z8UGvvcckZcWLrFykwNQXZaHhNDbCpfcp7NKYjH00neuMFRq5SQFoFqUg/hgJ4WrX8BkJweC4EitRH9UibIRF+igFEX72chnZjhNgJbEYrKTAyCLchL9UFWahRh/W6VIuWASvJGV6CeTchJ8UVmSiSjfa0qTwPty398lkMRiMuK9kJngLZOyE3xQWZIBgY+18iRvMCeO7sS6r5ZC4HeNf6gvjPFAepynzMqK90ZFcQYiH1gpVeGelrK/lkOPU3tazL6d6/DejOlwvX6KPdQXxrgjLfaezMqK90JFcRqooMqWJO8rnTdej0kTHuef4V8v7g0Mjcc4XfkNGurTYHxwJ1Kj3SCMdpdZmXFeoDHisHvnlK5Q9z+e+SLXjfM7oL3oSToDyvdAr1Gz9657grl+8RBsLA6yMd/oAHvorliMD2a9A4+b55Ea5SqTMuM8UV4kRKiHufLVCxgX6334+ssFGDJkMJul0TONXK9g3BzM8O7bb0Dv32uYj0mOvIOrlr/i9WmTsWHt54jwtUeKwEUqZcZ6orwwFSFup/tFwa4n2DuRDxwPY8s3SzFCbTg/bYUSD9JLsl2XXsFwvetN63UwT3MmAjwug+CQDPS/w6SJ46G/fT3CfWz57dz+Z60zY++jrDAFVMD+kuHOVRg75s88kLVr1yIvL68rD/7v54KhoU2LkweYn/n9qD6Swm8xhXlfw/cbdDF2zCis/nIpHtyx4Pdxx/RcZ8TcQ1lBMoJcfle6jA3/xSZYkssgdc36wZPo8UevYC6eMsDsmRrwdT2PxNAb8HO7yCZCvzdDHXZWxkgMc2KKCrDHzz9uxqSJ45hlHTXahlCvK/x+7jhap8d4MDD0iq+yZGG6HbNn/i9vIdLkyusVDFUlqzOGmDZ1Es6fNERCqCOT7cWjIDirdD+Br5slv53203E6ny1kk6bnffQ+jPZ9D4G/LX9MejRlHEpEwO1jCpejxT4snNs90kibXfGZYChcB9+3At3kN6u1WWOPqhbJaO8mNjFaZ/nHoJmd3HZuff6EAVbpLoHthSP8vvRodwbG/9avUJRuX9qP1V8s5C2EIg1lL5ElYelzwcQH2yE+2B77/kONn3EwPbSDfaZtpCMHfsC0KZOwaMEsnD9u0G0fdwy3To92A01Q9Lt5RO5yvXoAG9d8wodeymtDOTsp+4CsCwNDs77JKe34XpcfwYsNvIa4IFtePi5nsWyJJquzjtbG/HY65qTxLsz98D2MGT0SOssXsM9dz6W/06L+C8bpEPzkqB0bl2Pc2CeRRtaEgD0BMjBU/4YMftzQWbl0DhsMp/ch4wJtnpLVmQN4a/oU6GgvgOPlX7vt93E2x2HDzVg0fxbzNV33p0W5QpQXD98bB+UiI71/YPLE8Xy16WsKyV7B0EbqH3CNnjmzZyDQ/TzIap4lAkCAZs3UwEljvaeOC/Sw6LaNwNCERx9Hoz7pxMH17LpdQy+VXd4LsxjuSykP5pTXXmW/gvpfJ8PN8XfEBFx5ri6eNoDW/L+zDti6rz4Ffe7tHKHgLgNDyWxkkaXJJsz54G3eQjQ0NJ6Zw467n76su4GhL6KmMZfEavQoNZib7kaMv/UL5XbdDHt2rMWsmW8xX/PPz7UQ4HaWP4+ByYmFt8N+qWR3ZiuWLHifByJJ1sO+AOHOfQoM7aDwtnTpp3xh5sx+G24OpojxuyyRvG6dxAH99d3OEQpcUJITy1IfUfqjF+mO1S58tXIuH2ko9EqaJ5O7ub6sewXDfSG1ATi/M/hPg7Bj8z8Q5mmBaL9LUusxmBh42f/4XLlf3Y3N65bw16XQq8zs8ty9PxcMHURV69sN63nrmfrqeJib7EK0r5VUEkaSxcSwRFmURaw36W1a2q2TR8kHn9XJ425AUesXguEuTJ5fffqT9Isz3poCY6PNiPK9KJGEkc4oyYnGA9s9T+mXXTp4fcokHj6lp+RSO3LXV/ZaYjBcwaiejxs7mr+J0aOG419rlsHV/tjjxy/0mLcXcWAo3xwnswOrMOv9N/nv6i0ZKHddZa+lBsMVkBqF8+fN4W+K2hULNN/B8cNb4en0+1NwGJjsaHja6MPK9Ft8rPk4fSOdR8OJ0nbyuHIoai0zGK5A1Pb5Yctm3llyDS8aXF+yYCb2630NO0sjpEbeQXyEJ3SWfcDDVPQ/XeDKKMu6z2C4i1KIv3r1Kj5ZovUUJIJF729zSUvl0cnjrquotdzA9CwgWRKln97wzTpM/+tU3kp6G1/tea4qfFYYmJ43R2G/L8MAPb9P0Z//D9F+U+cGEtmGAAAAAElFTkSuQmCC;spacingRight=66;spacing=2;" parent="1IgViTsUdd26qkvO1Bmj-5" vertex="1">
          <mxGeometry x="235" y="18.360000000000014" width="36.46" height="50" as="geometry" />
        </mxCell>
        <mxCell id="1IgViTsUdd26qkvO1Bmj-8" value="&lt;div&gt;Сервер приложений&lt;/div&gt;&lt;div&gt;Количество: 1 сервер&lt;/div&gt;" style="text;html=1;align=left;verticalAlign=middle;whiteSpace=wrap;rounded=0;" parent="1IgViTsUdd26qkvO1Bmj-5" vertex="1">
          <mxGeometry x="5" y="38.360000000000014" width="130" height="30" as="geometry" />
        </mxCell>
        <mxCell id="1IgViTsUdd26qkvO1Bmj-9" value="" style="group;spacingRight=8;" parent="1" vertex="1" connectable="0">
          <mxGeometry x="-160" y="-110" width="310" height="95" as="geometry" />
        </mxCell>
        <mxCell id="1IgViTsUdd26qkvO1Bmj-10" value="" style="rounded=0;whiteSpace=wrap;html=1;dashed=1;dashPattern=1 4;" parent="1IgViTsUdd26qkvO1Bmj-9" vertex="1">
          <mxGeometry width="310" height="95" as="geometry" />
        </mxCell>
        <mxCell id="1IgViTsUdd26qkvO1Bmj-11" value="Standalone Selenium Grid&#xa;" style="shape=image;verticalLabelPosition=bottom;labelBackgroundColor=default;verticalAlign=top;aspect=fixed;imageAspect=0;image=data:image/png,iVBORw0KGgoAAAANSUhEUgAAAEYAAABgCAYAAACg2wSvAAASA0lEQVR4Ae2dB1RU19bHs9bnUxNFfbZnSdS8SMIXU3xPk2CLqIliNIS8F0uM5hmjebaHWIIYYizBALEGFRRFpYlYQIoivZeh16H3MtShV5H/t/bx3Ssg6swwMwxrfXet/7rMLXPP/c0+e59z7rmbl/D/S68EXup1q4ptDAgIgK6uLvT19VFTU6OU0qk0mLS0NAbkpZdeAqdRo0bh0KFDaGlpUSgglQQjEomwdetWHsb48WNx7PBerP7nCn7bhAkTcPr0aYXBUSkwVE3IGoYOHcoAjBw5Art3foesJD8UZoQwed69Au2lWjygadOmwdHRUe6AVAYM/fpkBVyV2bxxDWLDXHkgHBhu7WRnjrmas/njZ86cCU9PT7kB6ncwLi4uoF+dA6L96UKEB9xCYWaoRLpkYYJ3Zmjw52tpaSEiIqLPgPoNDEUaTU1N/obmas6C6y0rFGWFyaRTZkYgX8QBpihGzlvWRelgekYa9emv47KFGYqzIvqsnJQgHDbSB/kmDhA5cXLm0i5KA9NbpDE5aoDi7Ei5Sxjngz16WzB0yBAGiJy5oaGhVG0ghYPpLdLs2bUFuWmhKMmNUqjiBZ7Ysmkdbz3UBjIxMZGoDaRQMD0jDRUyIcoLpXkxSpUgxA26Oto8IIp+lpaWz61dCgFD7YqukWb5ssWICvWAKD+uX+V73xGLtebzgKiMFBV7W+QKhiINtSc4xzdvzoe4d9cOZQWJKiVnJ2vMnvWknFRmKnvXRS5g4uPjoa39xFTV1d/Atct/oLwoWaVFZaSycj8ktYHoXmjpExiKNBs3buS/+C/jx+G46SFUlAgHlMxPHwOVnQBRBKP7kgkMRRoKf0/6NCNhsHcnSvKSUFWaMeDUVFeB+rpqvPfuOwwOVSupwFBXnyINhT3O/Lb98B3SksJRXZY14FRfU4r21ibUVxcj4v4Z/P09denB9Iw0Kz5bhoTYYIgrcgec6sTFaGttRGtzHeKDbPDAbi88bXdLB6ZnpFkwfw58HtxFbVXBgFO9uATtbU1ob2tGeqwHvK8fgJe9gXRgekaaN99Uh4PdZRDtgai2tkYGpCA9HAG3jeFz42fpwDwVaf4yHmdOmaGhRjQg1d7SiI6H7RDlJyH8/ln43zaGn9NhycH0jDSjRo7ET4Y/oqq8CI11FQNOba0NeNjeirrqEkT7XUOw60kEOptKB8bB3r5bpNm5Yytys4VoaqgacGptqUfHwzY0NYiRKnBHuOcFhLqbywZm8OA/sTD1+crPkJaagOZG8YATRRgC0t7WgpyUEET72ULgbd03MNQmGT9GDf4OB9FUX8XCGF1oQKi1AY862pkfKc1PRmLYHcQF3ZAfmAnjRiHozm8MTkNtBdpaGlReDEhHO8TlBUiP90FKpLtiwET5XEDQHVM8uLwHjbVVrFVILUNVEwHpfNQB+gHz0qOQmeCPtFgvxYKJ8rVCmNspPLDei0ZxGR62NauMCMijRx1obWlEaX4K8tOjkJ0SqjwwMX7WCL/3B1zNtyA7zouFPQp9/aWO/wJ52N6G6vIClOQlozArrn/AxAVeQ2zANXjb7Ief3UE01lYwr0+eX3lqR2fnI2YlDTUVqCzNQVlRRv+DSQhxQFKYEyLunYPb2R+QE++DRx0PlaLOzk6QWprrUVNVguqyAtUDkyJwRkqkM3ztD8Lf/hfUi0XsV6T6Lm9xQKjaNtRWoU5cptpg0mI9kJnogzh/W9z9YxOCnIxRlpfEogNFiD6rsxPo7GTtkdbmejQ11KChtlK1wNy+agyPGyfAVSWyGA5MTmowCjIESAi6Aa8r++B5cRfykoOZLyB/IL0eV5lHHR1obW5ES1M9WprqVA9M6P3zGDTof/DnUWow/nkb8zG9gSnOTUBZoRC5KcEIcjoG17NbkBbpiuZ6MfMNXJV40ZqqYlsLAanrJpW0GB3t+Rg6ZDDU1IZB+5O5iA1xespiODAUKcSVhSgrSEHUPQu4nN6Ie5Y7EOdtjdLsWBbBgE50E3OsjxiQ5oYa9CaVBEPtmA1rtKE2/BVQB3PqaxPhct2c+RiuKvUEUycWobG+mv3qVSVZEIY7I+D6Edw0XQ0/OyMII+4y/0EW1NbSjKZ68Qulcj6GwFA75rL5zxg7+vHAt9rwYdBZsQSRQXeZj3keGKoa1MvlVJIdi3SBGx62taCxrhqNdVUSSWXBkPP1d7sIjTdfB4GZPHkytm/fhuMmR/BiMM1sKJHGV0nl+Uloa25gkYZuWFKpVLgW+FyBwPdKt6jk6X4TTY0NqKwogri6Ar+bmWL/Pj1kp8czH9O1KpHFtLU2dVNZfhJamxtQX1MulVQKjMPVc2x+m4v9cT4qiSvyUF9bjIqyVFRXZqKyohgmJr/hlVdewdo1XyFaEML7GAaG4HRRWV4iWpvqUVctkloq0/ItzY3DcTNjvDtDHb8abQOF66wkH/booblJjOamKtCoe2trK6teNNClpqaGiRMnQF9fD4LIUFAjrasIDIXk2qoSqaVSYG5ct8HbGm9g8ccfQWfFIoR427GoVFmaheaGalZNmpvqYWZqjOHDh2HYsGH808kRI0ZgzJgxuH3TkW+biPIS0NJYBzFVRRmkEn0lspjK0nQc/mk7Ro8eiZXLtTD1tUnYo7cJwjjfp6KSqDgLFufO4OMF8zFo0CBmPWRFBEtUUoDmxlqIcmksuRbV5YWySRU6kYWZkaDnurGhN+FwxQyvvToR77+rAe1PP8bUKZNx8ZzZM6NSdaUI165exrJln+LI4YNstJ5G7EW58QxMVVk+ZJVKDDuQ1TTWVyE61AXOjmfxle4yDHvlZSxeNA9/m/kO3lR/AxfOnWBDAdTyZVGprgpN9dW9SpQTz1q4laW5kF0qMh6TmeDFfvGk2AC43bLEKbOf8O4MDYwYoYaln2hh1t/eZw7316MHUS7KZ22TZzXeSnPi0NwgRkVJVp+kMgNVqQJn1k6pLC/CfVdbXLM6gZ3bvsPkSRPx8stDQQ/5lyxeiLFjxmDtmlVwdLBhg9Q0UN1VBIasqawovc/q96HNrsMOhVkCNDXWIS0lDjbW5rhkeZJNFtL86PF8/nlzNaH7xQpoLVwAikrrvl6NwrwMNp5CjbSSrFjWDRAVCNFXqRQYbjymvCQTLc2NSE2OhauzHZxv2eLSRXOsXvUlpk55DWpqw7FyxTLMnfMhDA32ora6lKkkK4aBKc1LQV+lkmCod12UFcOGG9vb21BYkI3wUG8E+LkjOPA+bt+0xYH9uzFu3BjsN9iDmqpipuKsaDTWVqI4J1Eu6tenBF2rEmcxXYcdyovSmMOlxxri6nLkZqcgMTYYackR0Nfbiv0/7oa4opCpODOa+Ry6IXmpX54r0bDDi8DQCB61LarL89FQV8mGJTs6HqKutgr79urBYJ8+20f7izOj0FBTjoLMGLlJxcFko6osl9djSBW4ZHUBFudO89uLMgWoF5chP00gVyn9SaSkFkPtksrS7BeqKD2S9apzU8MgT2WnhCj3Ea2kYMqLMyCJCtMjUFddCroReUtpD/W5oc0X+RhRYSrKitIkUmF6OJv2lZUUCHlLJcAEed/EXSdr1okUFaRAVJAqkQqE4aitKkZmgp9CpJRpIM+ymMAHDvjP7p3YZWKIL9bqgGYwSap8YRhqK4uQHuetEPUrGNNjP6NUXA73OD98c2wnfjn0I0pyEyRSfmooaioLIYzxVJgUOqOKJg49y2LMTH9BQr4Q3skhOOtri2+3r0dxTpxEyk8NgbiiAKlRHgpTSqSb4qaaPQ/McTMjHLb4DRcCHGHiaYVtBv9GYVaMRMpLDYa4PB8pka4KlUImJ9IcvOeBodkO6zeuwnL9tdDa8BncXWxQkBEpkfKSgyAuy0NSuLNC1W9gqK90z8UGvvcckZcWLrFykwNQXZaHhNDbCpfcp7NKYjH00neuMFRq5SQFoFqUg/hgJ4WrX8BkJweC4EitRH9UibIRF+igFEX72chnZjhNgJbEYrKTAyCLchL9UFWahRh/W6VIuWASvJGV6CeTchJ8UVmSiSjfa0qTwPty398lkMRiMuK9kJngLZOyE3xQWZIBgY+18iRvMCeO7sS6r5ZC4HeNf6gvjPFAepynzMqK90ZFcQYiH1gpVeGelrK/lkOPU3tazL6d6/DejOlwvX6KPdQXxrgjLfaezMqK90JFcRqooMqWJO8rnTdej0kTHuef4V8v7g0Mjcc4XfkNGurTYHxwJ1Kj3SCMdpdZmXFeoDHisHvnlK5Q9z+e+SLXjfM7oL3oSToDyvdAr1Gz9657grl+8RBsLA6yMd/oAHvorliMD2a9A4+b55Ea5SqTMuM8UV4kRKiHufLVCxgX6334+ssFGDJkMJul0TONXK9g3BzM8O7bb0Dv32uYj0mOvIOrlr/i9WmTsWHt54jwtUeKwEUqZcZ6orwwFSFup/tFwa4n2DuRDxwPY8s3SzFCbTg/bYUSD9JLsl2XXsFwvetN63UwT3MmAjwug+CQDPS/w6SJ46G/fT3CfWz57dz+Z60zY++jrDAFVMD+kuHOVRg75s88kLVr1yIvL68rD/7v54KhoU2LkweYn/n9qD6Swm8xhXlfw/cbdDF2zCis/nIpHtyx4Pdxx/RcZ8TcQ1lBMoJcfle6jA3/xSZYkssgdc36wZPo8UevYC6eMsDsmRrwdT2PxNAb8HO7yCZCvzdDHXZWxkgMc2KKCrDHzz9uxqSJ45hlHTXahlCvK/x+7jhap8d4MDD0iq+yZGG6HbNn/i9vIdLkyusVDFUlqzOGmDZ1Es6fNERCqCOT7cWjIDirdD+Br5slv53203E6ny1kk6bnffQ+jPZ9D4G/LX9MejRlHEpEwO1jCpejxT4snNs90kibXfGZYChcB9+3At3kN6u1WWOPqhbJaO8mNjFaZ/nHoJmd3HZuff6EAVbpLoHthSP8vvRodwbG/9avUJRuX9qP1V8s5C2EIg1lL5ElYelzwcQH2yE+2B77/kONn3EwPbSDfaZtpCMHfsC0KZOwaMEsnD9u0G0fdwy3To92A01Q9Lt5RO5yvXoAG9d8wodeymtDOTsp+4CsCwNDs77JKe34XpcfwYsNvIa4IFtePi5nsWyJJquzjtbG/HY65qTxLsz98D2MGT0SOssXsM9dz6W/06L+C8bpEPzkqB0bl2Pc2CeRRtaEgD0BMjBU/4YMftzQWbl0DhsMp/ch4wJtnpLVmQN4a/oU6GgvgOPlX7vt93E2x2HDzVg0fxbzNV33p0W5QpQXD98bB+UiI71/YPLE8Xy16WsKyV7B0EbqH3CNnjmzZyDQ/TzIap4lAkCAZs3UwEljvaeOC/Sw6LaNwNCERx9Hoz7pxMH17LpdQy+VXd4LsxjuSykP5pTXXmW/gvpfJ8PN8XfEBFx5ri6eNoDW/L+zDti6rz4Ffe7tHKHgLgNDyWxkkaXJJsz54G3eQjQ0NJ6Zw467n76su4GhL6KmMZfEavQoNZib7kaMv/UL5XbdDHt2rMWsmW8xX/PPz7UQ4HaWP4+ByYmFt8N+qWR3ZiuWLHifByJJ1sO+AOHOfQoM7aDwtnTpp3xh5sx+G24OpojxuyyRvG6dxAH99d3OEQpcUJITy1IfUfqjF+mO1S58tXIuH2ko9EqaJ5O7ub6sewXDfSG1ATi/M/hPg7Bj8z8Q5mmBaL9LUusxmBh42f/4XLlf3Y3N65bw16XQq8zs8ty9PxcMHURV69sN63nrmfrqeJib7EK0r5VUEkaSxcSwRFmURaw36W1a2q2TR8kHn9XJ425AUesXguEuTJ5fffqT9Isz3poCY6PNiPK9KJGEkc4oyYnGA9s9T+mXXTp4fcokHj6lp+RSO3LXV/ZaYjBcwaiejxs7mr+J0aOG419rlsHV/tjjxy/0mLcXcWAo3xwnswOrMOv9N/nv6i0ZKHddZa+lBsMVkBqF8+fN4W+K2hULNN/B8cNb4en0+1NwGJjsaHja6MPK9Ft8rPk4fSOdR8OJ0nbyuHIoai0zGK5A1Pb5Yctm3llyDS8aXF+yYCb2630NO0sjpEbeQXyEJ3SWfcDDVPQ/XeDKKMu6z2C4i1KIv3r1Kj5ZovUUJIJF729zSUvl0cnjrquotdzA9CwgWRKln97wzTpM/+tU3kp6G1/tea4qfFYYmJ43R2G/L8MAPb9P0Z//D9F+U+cGEtmGAAAAAElFTkSuQmCC;spacingRight=40;" parent="1IgViTsUdd26qkvO1Bmj-9" vertex="1">
          <mxGeometry x="235" y="18.360000000000014" width="36.46" height="50" as="geometry" />
        </mxCell>
        <mxCell id="1IgViTsUdd26qkvO1Bmj-12" value="&lt;div&gt;SelenuimGrid&amp;nbsp;&lt;/div&gt;&lt;div&gt;Количество: 1 сервера&lt;/div&gt;" style="text;html=1;align=left;verticalAlign=middle;whiteSpace=wrap;rounded=0;" parent="1IgViTsUdd26qkvO1Bmj-9" vertex="1">
          <mxGeometry x="5" y="38.360000000000014" width="130" height="30" as="geometry" />
        </mxCell>
        <mxCell id="1IgViTsUdd26qkvO1Bmj-17" value="" style="rounded=1;whiteSpace=wrap;html=1;strokeColor=#66B2FF;arcSize=2;" parent="1" vertex="1">
          <mxGeometry x="240" y="-280" width="400" height="300" as="geometry" />
        </mxCell>
        <mxCell id="1IgViTsUdd26qkvO1Bmj-18" value="Тестовая среда" style="text;html=1;align=left;verticalAlign=middle;whiteSpace=wrap;rounded=0;fontStyle=1;fontSize=13;" parent="1" vertex="1">
          <mxGeometry x="260" y="-270" width="150" height="30" as="geometry" />
        </mxCell>
        <mxCell id="1IgViTsUdd26qkvO1Bmj-19" value="" style="group;spacingRight=14;" parent="1" vertex="1" connectable="0">
          <mxGeometry x="280" y="-230" width="310" height="95" as="geometry" />
        </mxCell>
        <mxCell id="1IgViTsUdd26qkvO1Bmj-20" value="" style="rounded=0;whiteSpace=wrap;html=1;dashed=1;dashPattern=1 4;" parent="1IgViTsUdd26qkvO1Bmj-19" vertex="1">
          <mxGeometry width="310" height="95" as="geometry" />
        </mxCell>
        <mxCell id="1IgViTsUdd26qkvO1Bmj-21" value="" style="shape=image;verticalLabelPosition=bottom;labelBackgroundColor=default;verticalAlign=top;aspect=fixed;imageAspect=0;image=data:image/png,iVBORw0KGgoAAAANSUhEUgAAAEYAAABgCAYAAACg2wSvAAASA0lEQVR4Ae2dB1RU19bHs9bnUxNFfbZnSdS8SMIXU3xPk2CLqIliNIS8F0uM5hmjebaHWIIYYizBALEGFRRFpYlYQIoivZeh16H3MtShV5H/t/bx3Ssg6swwMwxrfXet/7rMLXPP/c0+e59z7rmbl/D/S68EXup1q4ptDAgIgK6uLvT19VFTU6OU0qk0mLS0NAbkpZdeAqdRo0bh0KFDaGlpUSgglQQjEomwdetWHsb48WNx7PBerP7nCn7bhAkTcPr0aYXBUSkwVE3IGoYOHcoAjBw5Art3foesJD8UZoQwed69Au2lWjygadOmwdHRUe6AVAYM/fpkBVyV2bxxDWLDXHkgHBhu7WRnjrmas/njZ86cCU9PT7kB6ncwLi4uoF+dA6L96UKEB9xCYWaoRLpkYYJ3Zmjw52tpaSEiIqLPgPoNDEUaTU1N/obmas6C6y0rFGWFyaRTZkYgX8QBpihGzlvWRelgekYa9emv47KFGYqzIvqsnJQgHDbSB/kmDhA5cXLm0i5KA9NbpDE5aoDi7Ei5Sxjngz16WzB0yBAGiJy5oaGhVG0ghYPpLdLs2bUFuWmhKMmNUqjiBZ7Ysmkdbz3UBjIxMZGoDaRQMD0jDRUyIcoLpXkxSpUgxA26Oto8IIp+lpaWz61dCgFD7YqukWb5ssWICvWAKD+uX+V73xGLtebzgKiMFBV7W+QKhiINtSc4xzdvzoe4d9cOZQWJKiVnJ2vMnvWknFRmKnvXRS5g4uPjoa39xFTV1d/Atct/oLwoWaVFZaSycj8ktYHoXmjpExiKNBs3buS/+C/jx+G46SFUlAgHlMxPHwOVnQBRBKP7kgkMRRoKf0/6NCNhsHcnSvKSUFWaMeDUVFeB+rpqvPfuOwwOVSupwFBXnyINhT3O/Lb98B3SksJRXZY14FRfU4r21ibUVxcj4v4Z/P09denB9Iw0Kz5bhoTYYIgrcgec6sTFaGttRGtzHeKDbPDAbi88bXdLB6ZnpFkwfw58HtxFbVXBgFO9uATtbU1ob2tGeqwHvK8fgJe9gXRgekaaN99Uh4PdZRDtgai2tkYGpCA9HAG3jeFz42fpwDwVaf4yHmdOmaGhRjQg1d7SiI6H7RDlJyH8/ln43zaGn9NhycH0jDSjRo7ET4Y/oqq8CI11FQNOba0NeNjeirrqEkT7XUOw60kEOptKB8bB3r5bpNm5Yytys4VoaqgacGptqUfHwzY0NYiRKnBHuOcFhLqbywZm8OA/sTD1+crPkJaagOZG8YATRRgC0t7WgpyUEET72ULgbd03MNQmGT9GDf4OB9FUX8XCGF1oQKi1AY862pkfKc1PRmLYHcQF3ZAfmAnjRiHozm8MTkNtBdpaGlReDEhHO8TlBUiP90FKpLtiwET5XEDQHVM8uLwHjbVVrFVILUNVEwHpfNQB+gHz0qOQmeCPtFgvxYKJ8rVCmNspPLDei0ZxGR62NauMCMijRx1obWlEaX4K8tOjkJ0SqjwwMX7WCL/3B1zNtyA7zouFPQp9/aWO/wJ52N6G6vIClOQlozArrn/AxAVeQ2zANXjb7Ief3UE01lYwr0+eX3lqR2fnI2YlDTUVqCzNQVlRRv+DSQhxQFKYEyLunYPb2R+QE++DRx0PlaLOzk6QWprrUVNVguqyAtUDkyJwRkqkM3ztD8Lf/hfUi0XsV6T6Lm9xQKjaNtRWoU5cptpg0mI9kJnogzh/W9z9YxOCnIxRlpfEogNFiD6rsxPo7GTtkdbmejQ11KChtlK1wNy+agyPGyfAVSWyGA5MTmowCjIESAi6Aa8r++B5cRfykoOZLyB/IL0eV5lHHR1obW5ES1M9WprqVA9M6P3zGDTof/DnUWow/nkb8zG9gSnOTUBZoRC5KcEIcjoG17NbkBbpiuZ6MfMNXJV40ZqqYlsLAanrJpW0GB3t+Rg6ZDDU1IZB+5O5iA1xespiODAUKcSVhSgrSEHUPQu4nN6Ie5Y7EOdtjdLsWBbBgE50E3OsjxiQ5oYa9CaVBEPtmA1rtKE2/BVQB3PqaxPhct2c+RiuKvUEUycWobG+mv3qVSVZEIY7I+D6Edw0XQ0/OyMII+4y/0EW1NbSjKZ68Qulcj6GwFA75rL5zxg7+vHAt9rwYdBZsQSRQXeZj3keGKoa1MvlVJIdi3SBGx62taCxrhqNdVUSSWXBkPP1d7sIjTdfB4GZPHkytm/fhuMmR/BiMM1sKJHGV0nl+Uloa25gkYZuWFKpVLgW+FyBwPdKt6jk6X4TTY0NqKwogri6Ar+bmWL/Pj1kp8czH9O1KpHFtLU2dVNZfhJamxtQX1MulVQKjMPVc2x+m4v9cT4qiSvyUF9bjIqyVFRXZqKyohgmJr/hlVdewdo1XyFaEML7GAaG4HRRWV4iWpvqUVctkloq0/ItzY3DcTNjvDtDHb8abQOF66wkH/booblJjOamKtCoe2trK6teNNClpqaGiRMnQF9fD4LIUFAjrasIDIXk2qoSqaVSYG5ct8HbGm9g8ccfQWfFIoR427GoVFmaheaGalZNmpvqYWZqjOHDh2HYsGH808kRI0ZgzJgxuH3TkW+biPIS0NJYBzFVRRmkEn0lspjK0nQc/mk7Ro8eiZXLtTD1tUnYo7cJwjjfp6KSqDgLFufO4OMF8zFo0CBmPWRFBEtUUoDmxlqIcmksuRbV5YWySRU6kYWZkaDnurGhN+FwxQyvvToR77+rAe1PP8bUKZNx8ZzZM6NSdaUI165exrJln+LI4YNstJ5G7EW58QxMVVk+ZJVKDDuQ1TTWVyE61AXOjmfxle4yDHvlZSxeNA9/m/kO3lR/AxfOnWBDAdTyZVGprgpN9dW9SpQTz1q4laW5kF0qMh6TmeDFfvGk2AC43bLEKbOf8O4MDYwYoYaln2hh1t/eZw7316MHUS7KZ22TZzXeSnPi0NwgRkVJVp+kMgNVqQJn1k6pLC/CfVdbXLM6gZ3bvsPkSRPx8stDQQ/5lyxeiLFjxmDtmlVwdLBhg9Q0UN1VBIasqawovc/q96HNrsMOhVkCNDXWIS0lDjbW5rhkeZJNFtL86PF8/nlzNaH7xQpoLVwAikrrvl6NwrwMNp5CjbSSrFjWDRAVCNFXqRQYbjymvCQTLc2NSE2OhauzHZxv2eLSRXOsXvUlpk55DWpqw7FyxTLMnfMhDA32ora6lKkkK4aBKc1LQV+lkmCod12UFcOGG9vb21BYkI3wUG8E+LkjOPA+bt+0xYH9uzFu3BjsN9iDmqpipuKsaDTWVqI4J1Eu6tenBF2rEmcxXYcdyovSmMOlxxri6nLkZqcgMTYYackR0Nfbiv0/7oa4opCpODOa+Ry6IXmpX54r0bDDi8DQCB61LarL89FQV8mGJTs6HqKutgr79urBYJ8+20f7izOj0FBTjoLMGLlJxcFko6osl9djSBW4ZHUBFudO89uLMgWoF5chP00gVyn9SaSkFkPtksrS7BeqKD2S9apzU8MgT2WnhCj3Ea2kYMqLMyCJCtMjUFddCroReUtpD/W5oc0X+RhRYSrKitIkUmF6OJv2lZUUCHlLJcAEed/EXSdr1okUFaRAVJAqkQqE4aitKkZmgp9CpJRpIM+ymMAHDvjP7p3YZWKIL9bqgGYwSap8YRhqK4uQHuetEPUrGNNjP6NUXA73OD98c2wnfjn0I0pyEyRSfmooaioLIYzxVJgUOqOKJg49y2LMTH9BQr4Q3skhOOtri2+3r0dxTpxEyk8NgbiiAKlRHgpTSqSb4qaaPQ/McTMjHLb4DRcCHGHiaYVtBv9GYVaMRMpLDYa4PB8pka4KlUImJ9IcvOeBodkO6zeuwnL9tdDa8BncXWxQkBEpkfKSgyAuy0NSuLNC1W9gqK90z8UGvvcckZcWLrFykwNQXZaHhNDbCpfcp7NKYjH00neuMFRq5SQFoFqUg/hgJ4WrX8BkJweC4EitRH9UibIRF+igFEX72chnZjhNgJbEYrKTAyCLchL9UFWahRh/W6VIuWASvJGV6CeTchJ8UVmSiSjfa0qTwPty398lkMRiMuK9kJngLZOyE3xQWZIBgY+18iRvMCeO7sS6r5ZC4HeNf6gvjPFAepynzMqK90ZFcQYiH1gpVeGelrK/lkOPU3tazL6d6/DejOlwvX6KPdQXxrgjLfaezMqK90JFcRqooMqWJO8rnTdej0kTHuef4V8v7g0Mjcc4XfkNGurTYHxwJ1Kj3SCMdpdZmXFeoDHisHvnlK5Q9z+e+SLXjfM7oL3oSToDyvdAr1Gz9657grl+8RBsLA6yMd/oAHvorliMD2a9A4+b55Ea5SqTMuM8UV4kRKiHufLVCxgX6334+ssFGDJkMJul0TONXK9g3BzM8O7bb0Dv32uYj0mOvIOrlr/i9WmTsWHt54jwtUeKwEUqZcZ6orwwFSFup/tFwa4n2DuRDxwPY8s3SzFCbTg/bYUSD9JLsl2XXsFwvetN63UwT3MmAjwug+CQDPS/w6SJ46G/fT3CfWz57dz+Z60zY++jrDAFVMD+kuHOVRg75s88kLVr1yIvL68rD/7v54KhoU2LkweYn/n9qD6Swm8xhXlfw/cbdDF2zCis/nIpHtyx4Pdxx/RcZ8TcQ1lBMoJcfle6jA3/xSZYkssgdc36wZPo8UevYC6eMsDsmRrwdT2PxNAb8HO7yCZCvzdDHXZWxkgMc2KKCrDHzz9uxqSJ45hlHTXahlCvK/x+7jhap8d4MDD0iq+yZGG6HbNn/i9vIdLkyusVDFUlqzOGmDZ1Es6fNERCqCOT7cWjIDirdD+Br5slv53203E6ny1kk6bnffQ+jPZ9D4G/LX9MejRlHEpEwO1jCpejxT4snNs90kibXfGZYChcB9+3At3kN6u1WWOPqhbJaO8mNjFaZ/nHoJmd3HZuff6EAVbpLoHthSP8vvRodwbG/9avUJRuX9qP1V8s5C2EIg1lL5ElYelzwcQH2yE+2B77/kONn3EwPbSDfaZtpCMHfsC0KZOwaMEsnD9u0G0fdwy3To92A01Q9Lt5RO5yvXoAG9d8wodeymtDOTsp+4CsCwNDs77JKe34XpcfwYsNvIa4IFtePi5nsWyJJquzjtbG/HY65qTxLsz98D2MGT0SOssXsM9dz6W/06L+C8bpEPzkqB0bl2Pc2CeRRtaEgD0BMjBU/4YMftzQWbl0DhsMp/ch4wJtnpLVmQN4a/oU6GgvgOPlX7vt93E2x2HDzVg0fxbzNV33p0W5QpQXD98bB+UiI71/YPLE8Xy16WsKyV7B0EbqH3CNnjmzZyDQ/TzIap4lAkCAZs3UwEljvaeOC/Sw6LaNwNCERx9Hoz7pxMH17LpdQy+VXd4LsxjuSykP5pTXXmW/gvpfJ8PN8XfEBFx5ri6eNoDW/L+zDti6rz4Ffe7tHKHgLgNDyWxkkaXJJsz54G3eQjQ0NJ6Zw467n76su4GhL6KmMZfEavQoNZib7kaMv/UL5XbdDHt2rMWsmW8xX/PPz7UQ4HaWP4+ByYmFt8N+qWR3ZiuWLHifByJJ1sO+AOHOfQoM7aDwtnTpp3xh5sx+G24OpojxuyyRvG6dxAH99d3OEQpcUJITy1IfUfqjF+mO1S58tXIuH2ko9EqaJ5O7ub6sewXDfSG1ATi/M/hPg7Bj8z8Q5mmBaL9LUusxmBh42f/4XLlf3Y3N65bw16XQq8zs8ty9PxcMHURV69sN63nrmfrqeJib7EK0r5VUEkaSxcSwRFmURaw36W1a2q2TR8kHn9XJ425AUesXguEuTJ5fffqT9Isz3poCY6PNiPK9KJGEkc4oyYnGA9s9T+mXXTp4fcokHj6lp+RSO3LXV/ZaYjBcwaiejxs7mr+J0aOG419rlsHV/tjjxy/0mLcXcWAo3xwnswOrMOv9N/nv6i0ZKHddZa+lBsMVkBqF8+fN4W+K2hULNN/B8cNb4en0+1NwGJjsaHja6MPK9Ft8rPk4fSOdR8OJ0nbyuHIoai0zGK5A1Pb5Yctm3llyDS8aXF+yYCb2630NO0sjpEbeQXyEJ3SWfcDDVPQ/XeDKKMu6z2C4i1KIv3r1Kj5ZovUUJIJF729zSUvl0cnjrquotdzA9CwgWRKln97wzTpM/+tU3kp6G1/tea4qfFYYmJ43R2G/L8MAPb9P0Z//D9F+U+cGEtmGAAAAAElFTkSuQmCC;spacingRight=66;spacing=2;" parent="1IgViTsUdd26qkvO1Bmj-19" vertex="1">
          <mxGeometry x="235" y="18.360000000000014" width="36.46" height="50" as="geometry" />
        </mxCell>
        <mxCell id="1IgViTsUdd26qkvO1Bmj-22" value="&lt;div&gt;Сервер приложений&lt;/div&gt;&lt;div&gt;Количество: 1 сервер&lt;/div&gt;" style="text;html=1;align=left;verticalAlign=middle;whiteSpace=wrap;rounded=0;" parent="1IgViTsUdd26qkvO1Bmj-19" vertex="1">
          <mxGeometry x="5" y="38.360000000000014" width="130" height="30" as="geometry" />
        </mxCell>
        <mxCell id="1IgViTsUdd26qkvO1Bmj-23" value="" style="group;spacingRight=8;" parent="1" vertex="1" connectable="0">
          <mxGeometry x="280" y="-110" width="310" height="95" as="geometry" />
        </mxCell>
        <mxCell id="1IgViTsUdd26qkvO1Bmj-24" value="" style="rounded=0;whiteSpace=wrap;html=1;dashed=1;dashPattern=1 4;" parent="1IgViTsUdd26qkvO1Bmj-23" vertex="1">
          <mxGeometry width="310" height="95" as="geometry" />
        </mxCell>
        <mxCell id="1IgViTsUdd26qkvO1Bmj-25" value="Standalone Selenium Grid&#xa;" style="shape=image;verticalLabelPosition=bottom;labelBackgroundColor=default;verticalAlign=top;aspect=fixed;imageAspect=0;image=data:image/png,iVBORw0KGgoAAAANSUhEUgAAAEYAAABgCAYAAACg2wSvAAASA0lEQVR4Ae2dB1RU19bHs9bnUxNFfbZnSdS8SMIXU3xPk2CLqIliNIS8F0uM5hmjebaHWIIYYizBALEGFRRFpYlYQIoivZeh16H3MtShV5H/t/bx3Ssg6swwMwxrfXet/7rMLXPP/c0+e59z7rmbl/D/S68EXup1q4ptDAgIgK6uLvT19VFTU6OU0qk0mLS0NAbkpZdeAqdRo0bh0KFDaGlpUSgglQQjEomwdetWHsb48WNx7PBerP7nCn7bhAkTcPr0aYXBUSkwVE3IGoYOHcoAjBw5Art3foesJD8UZoQwed69Au2lWjygadOmwdHRUe6AVAYM/fpkBVyV2bxxDWLDXHkgHBhu7WRnjrmas/njZ86cCU9PT7kB6ncwLi4uoF+dA6L96UKEB9xCYWaoRLpkYYJ3Zmjw52tpaSEiIqLPgPoNDEUaTU1N/obmas6C6y0rFGWFyaRTZkYgX8QBpihGzlvWRelgekYa9emv47KFGYqzIvqsnJQgHDbSB/kmDhA5cXLm0i5KA9NbpDE5aoDi7Ei5Sxjngz16WzB0yBAGiJy5oaGhVG0ghYPpLdLs2bUFuWmhKMmNUqjiBZ7Ysmkdbz3UBjIxMZGoDaRQMD0jDRUyIcoLpXkxSpUgxA26Oto8IIp+lpaWz61dCgFD7YqukWb5ssWICvWAKD+uX+V73xGLtebzgKiMFBV7W+QKhiINtSc4xzdvzoe4d9cOZQWJKiVnJ2vMnvWknFRmKnvXRS5g4uPjoa39xFTV1d/Atct/oLwoWaVFZaSycj8ktYHoXmjpExiKNBs3buS/+C/jx+G46SFUlAgHlMxPHwOVnQBRBKP7kgkMRRoKf0/6NCNhsHcnSvKSUFWaMeDUVFeB+rpqvPfuOwwOVSupwFBXnyINhT3O/Lb98B3SksJRXZY14FRfU4r21ibUVxcj4v4Z/P09denB9Iw0Kz5bhoTYYIgrcgec6sTFaGttRGtzHeKDbPDAbi88bXdLB6ZnpFkwfw58HtxFbVXBgFO9uATtbU1ob2tGeqwHvK8fgJe9gXRgekaaN99Uh4PdZRDtgai2tkYGpCA9HAG3jeFz42fpwDwVaf4yHmdOmaGhRjQg1d7SiI6H7RDlJyH8/ln43zaGn9NhycH0jDSjRo7ET4Y/oqq8CI11FQNOba0NeNjeirrqEkT7XUOw60kEOptKB8bB3r5bpNm5Yytys4VoaqgacGptqUfHwzY0NYiRKnBHuOcFhLqbywZm8OA/sTD1+crPkJaagOZG8YATRRgC0t7WgpyUEET72ULgbd03MNQmGT9GDf4OB9FUX8XCGF1oQKi1AY862pkfKc1PRmLYHcQF3ZAfmAnjRiHozm8MTkNtBdpaGlReDEhHO8TlBUiP90FKpLtiwET5XEDQHVM8uLwHjbVVrFVILUNVEwHpfNQB+gHz0qOQmeCPtFgvxYKJ8rVCmNspPLDei0ZxGR62NauMCMijRx1obWlEaX4K8tOjkJ0SqjwwMX7WCL/3B1zNtyA7zouFPQp9/aWO/wJ52N6G6vIClOQlozArrn/AxAVeQ2zANXjb7Ief3UE01lYwr0+eX3lqR2fnI2YlDTUVqCzNQVlRRv+DSQhxQFKYEyLunYPb2R+QE++DRx0PlaLOzk6QWprrUVNVguqyAtUDkyJwRkqkM3ztD8Lf/hfUi0XsV6T6Lm9xQKjaNtRWoU5cptpg0mI9kJnogzh/W9z9YxOCnIxRlpfEogNFiD6rsxPo7GTtkdbmejQ11KChtlK1wNy+agyPGyfAVSWyGA5MTmowCjIESAi6Aa8r++B5cRfykoOZLyB/IL0eV5lHHR1obW5ES1M9WprqVA9M6P3zGDTof/DnUWow/nkb8zG9gSnOTUBZoRC5KcEIcjoG17NbkBbpiuZ6MfMNXJV40ZqqYlsLAanrJpW0GB3t+Rg6ZDDU1IZB+5O5iA1xespiODAUKcSVhSgrSEHUPQu4nN6Ie5Y7EOdtjdLsWBbBgE50E3OsjxiQ5oYa9CaVBEPtmA1rtKE2/BVQB3PqaxPhct2c+RiuKvUEUycWobG+mv3qVSVZEIY7I+D6Edw0XQ0/OyMII+4y/0EW1NbSjKZ68Qulcj6GwFA75rL5zxg7+vHAt9rwYdBZsQSRQXeZj3keGKoa1MvlVJIdi3SBGx62taCxrhqNdVUSSWXBkPP1d7sIjTdfB4GZPHkytm/fhuMmR/BiMM1sKJHGV0nl+Uloa25gkYZuWFKpVLgW+FyBwPdKt6jk6X4TTY0NqKwogri6Ar+bmWL/Pj1kp8czH9O1KpHFtLU2dVNZfhJamxtQX1MulVQKjMPVc2x+m4v9cT4qiSvyUF9bjIqyVFRXZqKyohgmJr/hlVdewdo1XyFaEML7GAaG4HRRWV4iWpvqUVctkloq0/ItzY3DcTNjvDtDHb8abQOF66wkH/booblJjOamKtCoe2trK6teNNClpqaGiRMnQF9fD4LIUFAjrasIDIXk2qoSqaVSYG5ct8HbGm9g8ccfQWfFIoR427GoVFmaheaGalZNmpvqYWZqjOHDh2HYsGH808kRI0ZgzJgxuH3TkW+biPIS0NJYBzFVRRmkEn0lspjK0nQc/mk7Ro8eiZXLtTD1tUnYo7cJwjjfp6KSqDgLFufO4OMF8zFo0CBmPWRFBEtUUoDmxlqIcmksuRbV5YWySRU6kYWZkaDnurGhN+FwxQyvvToR77+rAe1PP8bUKZNx8ZzZM6NSdaUI165exrJln+LI4YNstJ5G7EW58QxMVVk+ZJVKDDuQ1TTWVyE61AXOjmfxle4yDHvlZSxeNA9/m/kO3lR/AxfOnWBDAdTyZVGprgpN9dW9SpQTz1q4laW5kF0qMh6TmeDFfvGk2AC43bLEKbOf8O4MDYwYoYaln2hh1t/eZw7316MHUS7KZ22TZzXeSnPi0NwgRkVJVp+kMgNVqQJn1k6pLC/CfVdbXLM6gZ3bvsPkSRPx8stDQQ/5lyxeiLFjxmDtmlVwdLBhg9Q0UN1VBIasqawovc/q96HNrsMOhVkCNDXWIS0lDjbW5rhkeZJNFtL86PF8/nlzNaH7xQpoLVwAikrrvl6NwrwMNp5CjbSSrFjWDRAVCNFXqRQYbjymvCQTLc2NSE2OhauzHZxv2eLSRXOsXvUlpk55DWpqw7FyxTLMnfMhDA32ora6lKkkK4aBKc1LQV+lkmCod12UFcOGG9vb21BYkI3wUG8E+LkjOPA+bt+0xYH9uzFu3BjsN9iDmqpipuKsaDTWVqI4J1Eu6tenBF2rEmcxXYcdyovSmMOlxxri6nLkZqcgMTYYackR0Nfbiv0/7oa4opCpODOa+Ry6IXmpX54r0bDDi8DQCB61LarL89FQV8mGJTs6HqKutgr79urBYJ8+20f7izOj0FBTjoLMGLlJxcFko6osl9djSBW4ZHUBFudO89uLMgWoF5chP00gVyn9SaSkFkPtksrS7BeqKD2S9apzU8MgT2WnhCj3Ea2kYMqLMyCJCtMjUFddCroReUtpD/W5oc0X+RhRYSrKitIkUmF6OJv2lZUUCHlLJcAEed/EXSdr1okUFaRAVJAqkQqE4aitKkZmgp9CpJRpIM+ymMAHDvjP7p3YZWKIL9bqgGYwSap8YRhqK4uQHuetEPUrGNNjP6NUXA73OD98c2wnfjn0I0pyEyRSfmooaioLIYzxVJgUOqOKJg49y2LMTH9BQr4Q3skhOOtri2+3r0dxTpxEyk8NgbiiAKlRHgpTSqSb4qaaPQ/McTMjHLb4DRcCHGHiaYVtBv9GYVaMRMpLDYa4PB8pka4KlUImJ9IcvOeBodkO6zeuwnL9tdDa8BncXWxQkBEpkfKSgyAuy0NSuLNC1W9gqK90z8UGvvcckZcWLrFykwNQXZaHhNDbCpfcp7NKYjH00neuMFRq5SQFoFqUg/hgJ4WrX8BkJweC4EitRH9UibIRF+igFEX72chnZjhNgJbEYrKTAyCLchL9UFWahRh/W6VIuWASvJGV6CeTchJ8UVmSiSjfa0qTwPty398lkMRiMuK9kJngLZOyE3xQWZIBgY+18iRvMCeO7sS6r5ZC4HeNf6gvjPFAepynzMqK90ZFcQYiH1gpVeGelrK/lkOPU3tazL6d6/DejOlwvX6KPdQXxrgjLfaezMqK90JFcRqooMqWJO8rnTdej0kTHuef4V8v7g0Mjcc4XfkNGurTYHxwJ1Kj3SCMdpdZmXFeoDHisHvnlK5Q9z+e+SLXjfM7oL3oSToDyvdAr1Gz9657grl+8RBsLA6yMd/oAHvorliMD2a9A4+b55Ea5SqTMuM8UV4kRKiHufLVCxgX6334+ssFGDJkMJul0TONXK9g3BzM8O7bb0Dv32uYj0mOvIOrlr/i9WmTsWHt54jwtUeKwEUqZcZ6orwwFSFup/tFwa4n2DuRDxwPY8s3SzFCbTg/bYUSD9JLsl2XXsFwvetN63UwT3MmAjwug+CQDPS/w6SJ46G/fT3CfWz57dz+Z60zY++jrDAFVMD+kuHOVRg75s88kLVr1yIvL68rD/7v54KhoU2LkweYn/n9qD6Swm8xhXlfw/cbdDF2zCis/nIpHtyx4Pdxx/RcZ8TcQ1lBMoJcfle6jA3/xSZYkssgdc36wZPo8UevYC6eMsDsmRrwdT2PxNAb8HO7yCZCvzdDHXZWxkgMc2KKCrDHzz9uxqSJ45hlHTXahlCvK/x+7jhap8d4MDD0iq+yZGG6HbNn/i9vIdLkyusVDFUlqzOGmDZ1Es6fNERCqCOT7cWjIDirdD+Br5slv53203E6ny1kk6bnffQ+jPZ9D4G/LX9MejRlHEpEwO1jCpejxT4snNs90kibXfGZYChcB9+3At3kN6u1WWOPqhbJaO8mNjFaZ/nHoJmd3HZuff6EAVbpLoHthSP8vvRodwbG/9avUJRuX9qP1V8s5C2EIg1lL5ElYelzwcQH2yE+2B77/kONn3EwPbSDfaZtpCMHfsC0KZOwaMEsnD9u0G0fdwy3To92A01Q9Lt5RO5yvXoAG9d8wodeymtDOTsp+4CsCwNDs77JKe34XpcfwYsNvIa4IFtePi5nsWyJJquzjtbG/HY65qTxLsz98D2MGT0SOssXsM9dz6W/06L+C8bpEPzkqB0bl2Pc2CeRRtaEgD0BMjBU/4YMftzQWbl0DhsMp/ch4wJtnpLVmQN4a/oU6GgvgOPlX7vt93E2x2HDzVg0fxbzNV33p0W5QpQXD98bB+UiI71/YPLE8Xy16WsKyV7B0EbqH3CNnjmzZyDQ/TzIap4lAkCAZs3UwEljvaeOC/Sw6LaNwNCERx9Hoz7pxMH17LpdQy+VXd4LsxjuSykP5pTXXmW/gvpfJ8PN8XfEBFx5ri6eNoDW/L+zDti6rz4Ffe7tHKHgLgNDyWxkkaXJJsz54G3eQjQ0NJ6Zw467n76su4GhL6KmMZfEavQoNZib7kaMv/UL5XbdDHt2rMWsmW8xX/PPz7UQ4HaWP4+ByYmFt8N+qWR3ZiuWLHifByJJ1sO+AOHOfQoM7aDwtnTpp3xh5sx+G24OpojxuyyRvG6dxAH99d3OEQpcUJITy1IfUfqjF+mO1S58tXIuH2ko9EqaJ5O7ub6sewXDfSG1ATi/M/hPg7Bj8z8Q5mmBaL9LUusxmBh42f/4XLlf3Y3N65bw16XQq8zs8ty9PxcMHURV69sN63nrmfrqeJib7EK0r5VUEkaSxcSwRFmURaw36W1a2q2TR8kHn9XJ425AUesXguEuTJ5fffqT9Isz3poCY6PNiPK9KJGEkc4oyYnGA9s9T+mXXTp4fcokHj6lp+RSO3LXV/ZaYjBcwaiejxs7mr+J0aOG419rlsHV/tjjxy/0mLcXcWAo3xwnswOrMOv9N/nv6i0ZKHddZa+lBsMVkBqF8+fN4W+K2hULNN/B8cNb4en0+1NwGJjsaHja6MPK9Ft8rPk4fSOdR8OJ0nbyuHIoai0zGK5A1Pb5Yctm3llyDS8aXF+yYCb2630NO0sjpEbeQXyEJ3SWfcDDVPQ/XeDKKMu6z2C4i1KIv3r1Kj5ZovUUJIJF729zSUvl0cnjrquotdzA9CwgWRKln97wzTpM/+tU3kp6G1/tea4qfFYYmJ43R2G/L8MAPb9P0Z//D9F+U+cGEtmGAAAAAElFTkSuQmCC;spacingRight=40;" parent="1IgViTsUdd26qkvO1Bmj-23" vertex="1">
          <mxGeometry x="235" y="18.360000000000014" width="36.46" height="50" as="geometry" />
        </mxCell>
        <mxCell id="1IgViTsUdd26qkvO1Bmj-26" value="&lt;div&gt;SelenuimGrid&amp;nbsp;&lt;/div&gt;&lt;div&gt;Количество: 1 сервера&lt;/div&gt;" style="text;html=1;align=left;verticalAlign=middle;whiteSpace=wrap;rounded=0;" parent="1IgViTsUdd26qkvO1Bmj-23" vertex="1">
          <mxGeometry x="5" y="38.360000000000014" width="130" height="30" as="geometry" />
        </mxCell>
        <mxCell id="1IgViTsUdd26qkvO1Bmj-27" value="" style="rounded=1;whiteSpace=wrap;html=1;strokeColor=#66B2FF;arcSize=2;" parent="1" vertex="1">
          <mxGeometry x="680" y="-280" width="390" height="390" as="geometry" />
        </mxCell>
        <mxCell id="1IgViTsUdd26qkvO1Bmj-28" value="Продуктивная среда" style="text;html=1;align=left;verticalAlign=middle;whiteSpace=wrap;rounded=0;fontStyle=1;fontSize=13;" parent="1" vertex="1">
          <mxGeometry x="700" y="-270" width="150" height="30" as="geometry" />
        </mxCell>
        <mxCell id="1IgViTsUdd26qkvO1Bmj-29" value="" style="group;spacingRight=14;" parent="1" vertex="1" connectable="0">
          <mxGeometry x="720" y="-230" width="310" height="95" as="geometry" />
        </mxCell>
        <mxCell id="1IgViTsUdd26qkvO1Bmj-30" value="" style="rounded=0;whiteSpace=wrap;html=1;dashed=1;dashPattern=1 4;" parent="1IgViTsUdd26qkvO1Bmj-29" vertex="1">
          <mxGeometry width="310" height="95" as="geometry" />
        </mxCell>
        <mxCell id="1IgViTsUdd26qkvO1Bmj-31" value="" style="shape=image;verticalLabelPosition=bottom;labelBackgroundColor=default;verticalAlign=top;aspect=fixed;imageAspect=0;image=data:image/png,iVBORw0KGgoAAAANSUhEUgAAAEYAAABgCAYAAACg2wSvAAASA0lEQVR4Ae2dB1RU19bHs9bnUxNFfbZnSdS8SMIXU3xPk2CLqIliNIS8F0uM5hmjebaHWIIYYizBALEGFRRFpYlYQIoivZeh16H3MtShV5H/t/bx3Ssg6swwMwxrfXet/7rMLXPP/c0+e59z7rmbl/D/S68EXup1q4ptDAgIgK6uLvT19VFTU6OU0qk0mLS0NAbkpZdeAqdRo0bh0KFDaGlpUSgglQQjEomwdetWHsb48WNx7PBerP7nCn7bhAkTcPr0aYXBUSkwVE3IGoYOHcoAjBw5Art3foesJD8UZoQwed69Au2lWjygadOmwdHRUe6AVAYM/fpkBVyV2bxxDWLDXHkgHBhu7WRnjrmas/njZ86cCU9PT7kB6ncwLi4uoF+dA6L96UKEB9xCYWaoRLpkYYJ3Zmjw52tpaSEiIqLPgPoNDEUaTU1N/obmas6C6y0rFGWFyaRTZkYgX8QBpihGzlvWRelgekYa9emv47KFGYqzIvqsnJQgHDbSB/kmDhA5cXLm0i5KA9NbpDE5aoDi7Ei5Sxjngz16WzB0yBAGiJy5oaGhVG0ghYPpLdLs2bUFuWmhKMmNUqjiBZ7Ysmkdbz3UBjIxMZGoDaRQMD0jDRUyIcoLpXkxSpUgxA26Oto8IIp+lpaWz61dCgFD7YqukWb5ssWICvWAKD+uX+V73xGLtebzgKiMFBV7W+QKhiINtSc4xzdvzoe4d9cOZQWJKiVnJ2vMnvWknFRmKnvXRS5g4uPjoa39xFTV1d/Atct/oLwoWaVFZaSycj8ktYHoXmjpExiKNBs3buS/+C/jx+G46SFUlAgHlMxPHwOVnQBRBKP7kgkMRRoKf0/6NCNhsHcnSvKSUFWaMeDUVFeB+rpqvPfuOwwOVSupwFBXnyINhT3O/Lb98B3SksJRXZY14FRfU4r21ibUVxcj4v4Z/P09denB9Iw0Kz5bhoTYYIgrcgec6sTFaGttRGtzHeKDbPDAbi88bXdLB6ZnpFkwfw58HtxFbVXBgFO9uATtbU1ob2tGeqwHvK8fgJe9gXRgekaaN99Uh4PdZRDtgai2tkYGpCA9HAG3jeFz42fpwDwVaf4yHmdOmaGhRjQg1d7SiI6H7RDlJyH8/ln43zaGn9NhycH0jDSjRo7ET4Y/oqq8CI11FQNOba0NeNjeirrqEkT7XUOw60kEOptKB8bB3r5bpNm5Yytys4VoaqgacGptqUfHwzY0NYiRKnBHuOcFhLqbywZm8OA/sTD1+crPkJaagOZG8YATRRgC0t7WgpyUEET72ULgbd03MNQmGT9GDf4OB9FUX8XCGF1oQKi1AY862pkfKc1PRmLYHcQF3ZAfmAnjRiHozm8MTkNtBdpaGlReDEhHO8TlBUiP90FKpLtiwET5XEDQHVM8uLwHjbVVrFVILUNVEwHpfNQB+gHz0qOQmeCPtFgvxYKJ8rVCmNspPLDei0ZxGR62NauMCMijRx1obWlEaX4K8tOjkJ0SqjwwMX7WCL/3B1zNtyA7zouFPQp9/aWO/wJ52N6G6vIClOQlozArrn/AxAVeQ2zANXjb7Ief3UE01lYwr0+eX3lqR2fnI2YlDTUVqCzNQVlRRv+DSQhxQFKYEyLunYPb2R+QE++DRx0PlaLOzk6QWprrUVNVguqyAtUDkyJwRkqkM3ztD8Lf/hfUi0XsV6T6Lm9xQKjaNtRWoU5cptpg0mI9kJnogzh/W9z9YxOCnIxRlpfEogNFiD6rsxPo7GTtkdbmejQ11KChtlK1wNy+agyPGyfAVSWyGA5MTmowCjIESAi6Aa8r++B5cRfykoOZLyB/IL0eV5lHHR1obW5ES1M9WprqVA9M6P3zGDTof/DnUWow/nkb8zG9gSnOTUBZoRC5KcEIcjoG17NbkBbpiuZ6MfMNXJV40ZqqYlsLAanrJpW0GB3t+Rg6ZDDU1IZB+5O5iA1xespiODAUKcSVhSgrSEHUPQu4nN6Ie5Y7EOdtjdLsWBbBgE50E3OsjxiQ5oYa9CaVBEPtmA1rtKE2/BVQB3PqaxPhct2c+RiuKvUEUycWobG+mv3qVSVZEIY7I+D6Edw0XQ0/OyMII+4y/0EW1NbSjKZ68Qulcj6GwFA75rL5zxg7+vHAt9rwYdBZsQSRQXeZj3keGKoa1MvlVJIdi3SBGx62taCxrhqNdVUSSWXBkPP1d7sIjTdfB4GZPHkytm/fhuMmR/BiMM1sKJHGV0nl+Uloa25gkYZuWFKpVLgW+FyBwPdKt6jk6X4TTY0NqKwogri6Ar+bmWL/Pj1kp8czH9O1KpHFtLU2dVNZfhJamxtQX1MulVQKjMPVc2x+m4v9cT4qiSvyUF9bjIqyVFRXZqKyohgmJr/hlVdewdo1XyFaEML7GAaG4HRRWV4iWpvqUVctkloq0/ItzY3DcTNjvDtDHb8abQOF66wkH/booblJjOamKtCoe2trK6teNNClpqaGiRMnQF9fD4LIUFAjrasIDIXk2qoSqaVSYG5ct8HbGm9g8ccfQWfFIoR427GoVFmaheaGalZNmpvqYWZqjOHDh2HYsGH808kRI0ZgzJgxuH3TkW+biPIS0NJYBzFVRRmkEn0lspjK0nQc/mk7Ro8eiZXLtTD1tUnYo7cJwjjfp6KSqDgLFufO4OMF8zFo0CBmPWRFBEtUUoDmxlqIcmksuRbV5YWySRU6kYWZkaDnurGhN+FwxQyvvToR77+rAe1PP8bUKZNx8ZzZM6NSdaUI165exrJln+LI4YNstJ5G7EW58QxMVVk+ZJVKDDuQ1TTWVyE61AXOjmfxle4yDHvlZSxeNA9/m/kO3lR/AxfOnWBDAdTyZVGprgpN9dW9SpQTz1q4laW5kF0qMh6TmeDFfvGk2AC43bLEKbOf8O4MDYwYoYaln2hh1t/eZw7316MHUS7KZ22TZzXeSnPi0NwgRkVJVp+kMgNVqQJn1k6pLC/CfVdbXLM6gZ3bvsPkSRPx8stDQQ/5lyxeiLFjxmDtmlVwdLBhg9Q0UN1VBIasqawovc/q96HNrsMOhVkCNDXWIS0lDjbW5rhkeZJNFtL86PF8/nlzNaH7xQpoLVwAikrrvl6NwrwMNp5CjbSSrFjWDRAVCNFXqRQYbjymvCQTLc2NSE2OhauzHZxv2eLSRXOsXvUlpk55DWpqw7FyxTLMnfMhDA32ora6lKkkK4aBKc1LQV+lkmCod12UFcOGG9vb21BYkI3wUG8E+LkjOPA+bt+0xYH9uzFu3BjsN9iDmqpipuKsaDTWVqI4J1Eu6tenBF2rEmcxXYcdyovSmMOlxxri6nLkZqcgMTYYackR0Nfbiv0/7oa4opCpODOa+Ry6IXmpX54r0bDDi8DQCB61LarL89FQV8mGJTs6HqKutgr79urBYJ8+20f7izOj0FBTjoLMGLlJxcFko6osl9djSBW4ZHUBFudO89uLMgWoF5chP00gVyn9SaSkFkPtksrS7BeqKD2S9apzU8MgT2WnhCj3Ea2kYMqLMyCJCtMjUFddCroReUtpD/W5oc0X+RhRYSrKitIkUmF6OJv2lZUUCHlLJcAEed/EXSdr1okUFaRAVJAqkQqE4aitKkZmgp9CpJRpIM+ymMAHDvjP7p3YZWKIL9bqgGYwSap8YRhqK4uQHuetEPUrGNNjP6NUXA73OD98c2wnfjn0I0pyEyRSfmooaioLIYzxVJgUOqOKJg49y2LMTH9BQr4Q3skhOOtri2+3r0dxTpxEyk8NgbiiAKlRHgpTSqSb4qaaPQ/McTMjHLb4DRcCHGHiaYVtBv9GYVaMRMpLDYa4PB8pka4KlUImJ9IcvOeBodkO6zeuwnL9tdDa8BncXWxQkBEpkfKSgyAuy0NSuLNC1W9gqK90z8UGvvcckZcWLrFykwNQXZaHhNDbCpfcp7NKYjH00neuMFRq5SQFoFqUg/hgJ4WrX8BkJweC4EitRH9UibIRF+igFEX72chnZjhNgJbEYrKTAyCLchL9UFWahRh/W6VIuWASvJGV6CeTchJ8UVmSiSjfa0qTwPty398lkMRiMuK9kJngLZOyE3xQWZIBgY+18iRvMCeO7sS6r5ZC4HeNf6gvjPFAepynzMqK90ZFcQYiH1gpVeGelrK/lkOPU3tazL6d6/DejOlwvX6KPdQXxrgjLfaezMqK90JFcRqooMqWJO8rnTdej0kTHuef4V8v7g0Mjcc4XfkNGurTYHxwJ1Kj3SCMdpdZmXFeoDHisHvnlK5Q9z+e+SLXjfM7oL3oSToDyvdAr1Gz9657grl+8RBsLA6yMd/oAHvorliMD2a9A4+b55Ea5SqTMuM8UV4kRKiHufLVCxgX6334+ssFGDJkMJul0TONXK9g3BzM8O7bb0Dv32uYj0mOvIOrlr/i9WmTsWHt54jwtUeKwEUqZcZ6orwwFSFup/tFwa4n2DuRDxwPY8s3SzFCbTg/bYUSD9JLsl2XXsFwvetN63UwT3MmAjwug+CQDPS/w6SJ46G/fT3CfWz57dz+Z60zY++jrDAFVMD+kuHOVRg75s88kLVr1yIvL68rD/7v54KhoU2LkweYn/n9qD6Swm8xhXlfw/cbdDF2zCis/nIpHtyx4Pdxx/RcZ8TcQ1lBMoJcfle6jA3/xSZYkssgdc36wZPo8UevYC6eMsDsmRrwdT2PxNAb8HO7yCZCvzdDHXZWxkgMc2KKCrDHzz9uxqSJ45hlHTXahlCvK/x+7jhap8d4MDD0iq+yZGG6HbNn/i9vIdLkyusVDFUlqzOGmDZ1Es6fNERCqCOT7cWjIDirdD+Br5slv53203E6ny1kk6bnffQ+jPZ9D4G/LX9MejRlHEpEwO1jCpejxT4snNs90kibXfGZYChcB9+3At3kN6u1WWOPqhbJaO8mNjFaZ/nHoJmd3HZuff6EAVbpLoHthSP8vvRodwbG/9avUJRuX9qP1V8s5C2EIg1lL5ElYelzwcQH2yE+2B77/kONn3EwPbSDfaZtpCMHfsC0KZOwaMEsnD9u0G0fdwy3To92A01Q9Lt5RO5yvXoAG9d8wodeymtDOTsp+4CsCwNDs77JKe34XpcfwYsNvIa4IFtePi5nsWyJJquzjtbG/HY65qTxLsz98D2MGT0SOssXsM9dz6W/06L+C8bpEPzkqB0bl2Pc2CeRRtaEgD0BMjBU/4YMftzQWbl0DhsMp/ch4wJtnpLVmQN4a/oU6GgvgOPlX7vt93E2x2HDzVg0fxbzNV33p0W5QpQXD98bB+UiI71/YPLE8Xy16WsKyV7B0EbqH3CNnjmzZyDQ/TzIap4lAkCAZs3UwEljvaeOC/Sw6LaNwNCERx9Hoz7pxMH17LpdQy+VXd4LsxjuSykP5pTXXmW/gvpfJ8PN8XfEBFx5ri6eNoDW/L+zDti6rz4Ffe7tHKHgLgNDyWxkkaXJJsz54G3eQjQ0NJ6Zw467n76su4GhL6KmMZfEavQoNZib7kaMv/UL5XbdDHt2rMWsmW8xX/PPz7UQ4HaWP4+ByYmFt8N+qWR3ZiuWLHifByJJ1sO+AOHOfQoM7aDwtnTpp3xh5sx+G24OpojxuyyRvG6dxAH99d3OEQpcUJITy1IfUfqjF+mO1S58tXIuH2ko9EqaJ5O7ub6sewXDfSG1ATi/M/hPg7Bj8z8Q5mmBaL9LUusxmBh42f/4XLlf3Y3N65bw16XQq8zs8ty9PxcMHURV69sN63nrmfrqeJib7EK0r5VUEkaSxcSwRFmURaw36W1a2q2TR8kHn9XJ425AUesXguEuTJ5fffqT9Isz3poCY6PNiPK9KJGEkc4oyYnGA9s9T+mXXTp4fcokHj6lp+RSO3LXV/ZaYjBcwaiejxs7mr+J0aOG419rlsHV/tjjxy/0mLcXcWAo3xwnswOrMOv9N/nv6i0ZKHddZa+lBsMVkBqF8+fN4W+K2hULNN/B8cNb4en0+1NwGJjsaHja6MPK9Ft8rPk4fSOdR8OJ0nbyuHIoai0zGK5A1Pb5Yctm3llyDS8aXF+yYCb2630NO0sjpEbeQXyEJ3SWfcDDVPQ/XeDKKMu6z2C4i1KIv3r1Kj5ZovUUJIJF729zSUvl0cnjrquotdzA9CwgWRKln97wzTpM/+tU3kp6G1/tea4qfFYYmJ43R2G/L8MAPb9P0Z//D9F+U+cGEtmGAAAAAElFTkSuQmCC;spacingRight=66;spacing=2;" parent="1IgViTsUdd26qkvO1Bmj-29" vertex="1">
          <mxGeometry x="235" y="18.360000000000014" width="36.46" height="50" as="geometry" />
        </mxCell>
        <mxCell id="1IgViTsUdd26qkvO1Bmj-32" value="&lt;div&gt;Сервер приложений&lt;/div&gt;&lt;div&gt;Количество: 1 сервер&lt;/div&gt;" style="text;html=1;align=left;verticalAlign=middle;whiteSpace=wrap;rounded=0;" parent="1IgViTsUdd26qkvO1Bmj-29" vertex="1">
          <mxGeometry x="5" y="38.360000000000014" width="130" height="30" as="geometry" />
        </mxCell>
        <mxCell id="1IgViTsUdd26qkvO1Bmj-38" value="&lt;h1 style=&quot;margin-top: 0px;&quot;&gt;Сервер приложений&lt;/h1&gt;&lt;p&gt;Сервер приложений содержит сервисы:&lt;br&gt;&lt;/p&gt;&lt;p&gt;Cucumber&lt;br&gt;TEST CONTEXT TERRA&lt;br&gt;Selenuim&lt;br&gt;&lt;br&gt;&lt;br&gt;&lt;/p&gt;" style="text;html=1;whiteSpace=wrap;overflow=hidden;rounded=0;" parent="1" vertex="1">
          <mxGeometry x="-200" y="-510" width="355" height="130" as="geometry" />
        </mxCell>
        <mxCell id="1IgViTsUdd26qkvO1Bmj-39" value="" style="rounded=1;whiteSpace=wrap;html=1;dashed=1;dashPattern=1 4;" parent="1" vertex="1">
          <mxGeometry x="700" y="-120" width="350" height="220" as="geometry" />
        </mxCell>
        <mxCell id="1IgViTsUdd26qkvO1Bmj-33" value="" style="group;spacingRight=8;" parent="1" vertex="1" connectable="0">
          <mxGeometry x="720" y="-90" width="310" height="95" as="geometry" />
        </mxCell>
        <mxCell id="1IgViTsUdd26qkvO1Bmj-34" value="" style="rounded=0;whiteSpace=wrap;html=1;dashed=1;dashPattern=1 4;" parent="1IgViTsUdd26qkvO1Bmj-33" vertex="1">
          <mxGeometry width="310" height="80" as="geometry" />
        </mxCell>
        <mxCell id="1IgViTsUdd26qkvO1Bmj-35" value="&#xa;" style="shape=image;verticalLabelPosition=bottom;labelBackgroundColor=default;verticalAlign=top;aspect=fixed;imageAspect=0;image=data:image/png,iVBORw0KGgoAAAANSUhEUgAAAEYAAABgCAYAAACg2wSvAAASA0lEQVR4Ae2dB1RU19bHs9bnUxNFfbZnSdS8SMIXU3xPk2CLqIliNIS8F0uM5hmjebaHWIIYYizBALEGFRRFpYlYQIoivZeh16H3MtShV5H/t/bx3Ssg6swwMwxrfXet/7rMLXPP/c0+e59z7rmbl/D/S68EXup1q4ptDAgIgK6uLvT19VFTU6OU0qk0mLS0NAbkpZdeAqdRo0bh0KFDaGlpUSgglQQjEomwdetWHsb48WNx7PBerP7nCn7bhAkTcPr0aYXBUSkwVE3IGoYOHcoAjBw5Art3foesJD8UZoQwed69Au2lWjygadOmwdHRUe6AVAYM/fpkBVyV2bxxDWLDXHkgHBhu7WRnjrmas/njZ86cCU9PT7kB6ncwLi4uoF+dA6L96UKEB9xCYWaoRLpkYYJ3Zmjw52tpaSEiIqLPgPoNDEUaTU1N/obmas6C6y0rFGWFyaRTZkYgX8QBpihGzlvWRelgekYa9emv47KFGYqzIvqsnJQgHDbSB/kmDhA5cXLm0i5KA9NbpDE5aoDi7Ei5Sxjngz16WzB0yBAGiJy5oaGhVG0ghYPpLdLs2bUFuWmhKMmNUqjiBZ7Ysmkdbz3UBjIxMZGoDaRQMD0jDRUyIcoLpXkxSpUgxA26Oto8IIp+lpaWz61dCgFD7YqukWb5ssWICvWAKD+uX+V73xGLtebzgKiMFBV7W+QKhiINtSc4xzdvzoe4d9cOZQWJKiVnJ2vMnvWknFRmKnvXRS5g4uPjoa39xFTV1d/Atct/oLwoWaVFZaSycj8ktYHoXmjpExiKNBs3buS/+C/jx+G46SFUlAgHlMxPHwOVnQBRBKP7kgkMRRoKf0/6NCNhsHcnSvKSUFWaMeDUVFeB+rpqvPfuOwwOVSupwFBXnyINhT3O/Lb98B3SksJRXZY14FRfU4r21ibUVxcj4v4Z/P09denB9Iw0Kz5bhoTYYIgrcgec6sTFaGttRGtzHeKDbPDAbi88bXdLB6ZnpFkwfw58HtxFbVXBgFO9uATtbU1ob2tGeqwHvK8fgJe9gXRgekaaN99Uh4PdZRDtgai2tkYGpCA9HAG3jeFz42fpwDwVaf4yHmdOmaGhRjQg1d7SiI6H7RDlJyH8/ln43zaGn9NhycH0jDSjRo7ET4Y/oqq8CI11FQNOba0NeNjeirrqEkT7XUOw60kEOptKB8bB3r5bpNm5Yytys4VoaqgacGptqUfHwzY0NYiRKnBHuOcFhLqbywZm8OA/sTD1+crPkJaagOZG8YATRRgC0t7WgpyUEET72ULgbd03MNQmGT9GDf4OB9FUX8XCGF1oQKi1AY862pkfKc1PRmLYHcQF3ZAfmAnjRiHozm8MTkNtBdpaGlReDEhHO8TlBUiP90FKpLtiwET5XEDQHVM8uLwHjbVVrFVILUNVEwHpfNQB+gHz0qOQmeCPtFgvxYKJ8rVCmNspPLDei0ZxGR62NauMCMijRx1obWlEaX4K8tOjkJ0SqjwwMX7WCL/3B1zNtyA7zouFPQp9/aWO/wJ52N6G6vIClOQlozArrn/AxAVeQ2zANXjb7Ief3UE01lYwr0+eX3lqR2fnI2YlDTUVqCzNQVlRRv+DSQhxQFKYEyLunYPb2R+QE++DRx0PlaLOzk6QWprrUVNVguqyAtUDkyJwRkqkM3ztD8Lf/hfUi0XsV6T6Lm9xQKjaNtRWoU5cptpg0mI9kJnogzh/W9z9YxOCnIxRlpfEogNFiD6rsxPo7GTtkdbmejQ11KChtlK1wNy+agyPGyfAVSWyGA5MTmowCjIESAi6Aa8r++B5cRfykoOZLyB/IL0eV5lHHR1obW5ES1M9WprqVA9M6P3zGDTof/DnUWow/nkb8zG9gSnOTUBZoRC5KcEIcjoG17NbkBbpiuZ6MfMNXJV40ZqqYlsLAanrJpW0GB3t+Rg6ZDDU1IZB+5O5iA1xespiODAUKcSVhSgrSEHUPQu4nN6Ie5Y7EOdtjdLsWBbBgE50E3OsjxiQ5oYa9CaVBEPtmA1rtKE2/BVQB3PqaxPhct2c+RiuKvUEUycWobG+mv3qVSVZEIY7I+D6Edw0XQ0/OyMII+4y/0EW1NbSjKZ68Qulcj6GwFA75rL5zxg7+vHAt9rwYdBZsQSRQXeZj3keGKoa1MvlVJIdi3SBGx62taCxrhqNdVUSSWXBkPP1d7sIjTdfB4GZPHkytm/fhuMmR/BiMM1sKJHGV0nl+Uloa25gkYZuWFKpVLgW+FyBwPdKt6jk6X4TTY0NqKwogri6Ar+bmWL/Pj1kp8czH9O1KpHFtLU2dVNZfhJamxtQX1MulVQKjMPVc2x+m4v9cT4qiSvyUF9bjIqyVFRXZqKyohgmJr/hlVdewdo1XyFaEML7GAaG4HRRWV4iWpvqUVctkloq0/ItzY3DcTNjvDtDHb8abQOF66wkH/booblJjOamKtCoe2trK6teNNClpqaGiRMnQF9fD4LIUFAjrasIDIXk2qoSqaVSYG5ct8HbGm9g8ccfQWfFIoR427GoVFmaheaGalZNmpvqYWZqjOHDh2HYsGH808kRI0ZgzJgxuH3TkW+biPIS0NJYBzFVRRmkEn0lspjK0nQc/mk7Ro8eiZXLtTD1tUnYo7cJwjjfp6KSqDgLFufO4OMF8zFo0CBmPWRFBEtUUoDmxlqIcmksuRbV5YWySRU6kYWZkaDnurGhN+FwxQyvvToR77+rAe1PP8bUKZNx8ZzZM6NSdaUI165exrJln+LI4YNstJ5G7EW58QxMVVk+ZJVKDDuQ1TTWVyE61AXOjmfxle4yDHvlZSxeNA9/m/kO3lR/AxfOnWBDAdTyZVGprgpN9dW9SpQTz1q4laW5kF0qMh6TmeDFfvGk2AC43bLEKbOf8O4MDYwYoYaln2hh1t/eZw7316MHUS7KZ22TZzXeSnPi0NwgRkVJVp+kMgNVqQJn1k6pLC/CfVdbXLM6gZ3bvsPkSRPx8stDQQ/5lyxeiLFjxmDtmlVwdLBhg9Q0UN1VBIasqawovc/q96HNrsMOhVkCNDXWIS0lDjbW5rhkeZJNFtL86PF8/nlzNaH7xQpoLVwAikrrvl6NwrwMNp5CjbSSrFjWDRAVCNFXqRQYbjymvCQTLc2NSE2OhauzHZxv2eLSRXOsXvUlpk55DWpqw7FyxTLMnfMhDA32ora6lKkkK4aBKc1LQV+lkmCod12UFcOGG9vb21BYkI3wUG8E+LkjOPA+bt+0xYH9uzFu3BjsN9iDmqpipuKsaDTWVqI4J1Eu6tenBF2rEmcxXYcdyovSmMOlxxri6nLkZqcgMTYYackR0Nfbiv0/7oa4opCpODOa+Ry6IXmpX54r0bDDi8DQCB61LarL89FQV8mGJTs6HqKutgr79urBYJ8+20f7izOj0FBTjoLMGLlJxcFko6osl9djSBW4ZHUBFudO89uLMgWoF5chP00gVyn9SaSkFkPtksrS7BeqKD2S9apzU8MgT2WnhCj3Ea2kYMqLMyCJCtMjUFddCroReUtpD/W5oc0X+RhRYSrKitIkUmF6OJv2lZUUCHlLJcAEed/EXSdr1okUFaRAVJAqkQqE4aitKkZmgp9CpJRpIM+ymMAHDvjP7p3YZWKIL9bqgGYwSap8YRhqK4uQHuetEPUrGNNjP6NUXA73OD98c2wnfjn0I0pyEyRSfmooaioLIYzxVJgUOqOKJg49y2LMTH9BQr4Q3skhOOtri2+3r0dxTpxEyk8NgbiiAKlRHgpTSqSb4qaaPQ/McTMjHLb4DRcCHGHiaYVtBv9GYVaMRMpLDYa4PB8pka4KlUImJ9IcvOeBodkO6zeuwnL9tdDa8BncXWxQkBEpkfKSgyAuy0NSuLNC1W9gqK90z8UGvvcckZcWLrFykwNQXZaHhNDbCpfcp7NKYjH00neuMFRq5SQFoFqUg/hgJ4WrX8BkJweC4EitRH9UibIRF+igFEX72chnZjhNgJbEYrKTAyCLchL9UFWahRh/W6VIuWASvJGV6CeTchJ8UVmSiSjfa0qTwPty398lkMRiMuK9kJngLZOyE3xQWZIBgY+18iRvMCeO7sS6r5ZC4HeNf6gvjPFAepynzMqK90ZFcQYiH1gpVeGelrK/lkOPU3tazL6d6/DejOlwvX6KPdQXxrgjLfaezMqK90JFcRqooMqWJO8rnTdej0kTHuef4V8v7g0Mjcc4XfkNGurTYHxwJ1Kj3SCMdpdZmXFeoDHisHvnlK5Q9z+e+SLXjfM7oL3oSToDyvdAr1Gz9657grl+8RBsLA6yMd/oAHvorliMD2a9A4+b55Ea5SqTMuM8UV4kRKiHufLVCxgX6334+ssFGDJkMJul0TONXK9g3BzM8O7bb0Dv32uYj0mOvIOrlr/i9WmTsWHt54jwtUeKwEUqZcZ6orwwFSFup/tFwa4n2DuRDxwPY8s3SzFCbTg/bYUSD9JLsl2XXsFwvetN63UwT3MmAjwug+CQDPS/w6SJ46G/fT3CfWz57dz+Z60zY++jrDAFVMD+kuHOVRg75s88kLVr1yIvL68rD/7v54KhoU2LkweYn/n9qD6Swm8xhXlfw/cbdDF2zCis/nIpHtyx4Pdxx/RcZ8TcQ1lBMoJcfle6jA3/xSZYkssgdc36wZPo8UevYC6eMsDsmRrwdT2PxNAb8HO7yCZCvzdDHXZWxkgMc2KKCrDHzz9uxqSJ45hlHTXahlCvK/x+7jhap8d4MDD0iq+yZGG6HbNn/i9vIdLkyusVDFUlqzOGmDZ1Es6fNERCqCOT7cWjIDirdD+Br5slv53203E6ny1kk6bnffQ+jPZ9D4G/LX9MejRlHEpEwO1jCpejxT4snNs90kibXfGZYChcB9+3At3kN6u1WWOPqhbJaO8mNjFaZ/nHoJmd3HZuff6EAVbpLoHthSP8vvRodwbG/9avUJRuX9qP1V8s5C2EIg1lL5ElYelzwcQH2yE+2B77/kONn3EwPbSDfaZtpCMHfsC0KZOwaMEsnD9u0G0fdwy3To92A01Q9Lt5RO5yvXoAG9d8wodeymtDOTsp+4CsCwNDs77JKe34XpcfwYsNvIa4IFtePi5nsWyJJquzjtbG/HY65qTxLsz98D2MGT0SOssXsM9dz6W/06L+C8bpEPzkqB0bl2Pc2CeRRtaEgD0BMjBU/4YMftzQWbl0DhsMp/ch4wJtnpLVmQN4a/oU6GgvgOPlX7vt93E2x2HDzVg0fxbzNV33p0W5QpQXD98bB+UiI71/YPLE8Xy16WsKyV7B0EbqH3CNnjmzZyDQ/TzIap4lAkCAZs3UwEljvaeOC/Sw6LaNwNCERx9Hoz7pxMH17LpdQy+VXd4LsxjuSykP5pTXXmW/gvpfJ8PN8XfEBFx5ri6eNoDW/L+zDti6rz4Ffe7tHKHgLgNDyWxkkaXJJsz54G3eQjQ0NJ6Zw467n76su4GhL6KmMZfEavQoNZib7kaMv/UL5XbdDHt2rMWsmW8xX/PPz7UQ4HaWP4+ByYmFt8N+qWR3ZiuWLHifByJJ1sO+AOHOfQoM7aDwtnTpp3xh5sx+G24OpojxuyyRvG6dxAH99d3OEQpcUJITy1IfUfqjF+mO1S58tXIuH2ko9EqaJ5O7ub6sewXDfSG1ATi/M/hPg7Bj8z8Q5mmBaL9LUusxmBh42f/4XLlf3Y3N65bw16XQq8zs8ty9PxcMHURV69sN63nrmfrqeJib7EK0r5VUEkaSxcSwRFmURaw36W1a2q2TR8kHn9XJ425AUesXguEuTJ5fffqT9Isz3poCY6PNiPK9KJGEkc4oyYnGA9s9T+mXXTp4fcokHj6lp+RSO3LXV/ZaYjBcwaiejxs7mr+J0aOG419rlsHV/tjjxy/0mLcXcWAo3xwnswOrMOv9N/nv6i0ZKHddZa+lBsMVkBqF8+fN4W+K2hULNN/B8cNb4en0+1NwGJjsaHja6MPK9Ft8rPk4fSOdR8OJ0nbyuHIoai0zGK5A1Pb5Yctm3llyDS8aXF+yYCb2630NO0sjpEbeQXyEJ3SWfcDDVPQ/XeDKKMu6z2C4i1KIv3r1Kj5ZovUUJIJF729zSUvl0cnjrquotdzA9CwgWRKln97wzTpM/+tU3kp6G1/tea4qfFYYmJ43R2G/L8MAPb9P0Z//D9F+U+cGEtmGAAAAAElFTkSuQmCC;spacingRight=40;" parent="1IgViTsUdd26qkvO1Bmj-33" vertex="1">
          <mxGeometry x="235" y="18.360000000000014" width="36.46" height="50" as="geometry" />
        </mxCell>
        <mxCell id="1IgViTsUdd26qkvO1Bmj-36" value="&lt;div&gt;Hub&amp;nbsp;&lt;/div&gt;&lt;div&gt;Количество: 1 сервера&lt;/div&gt;" style="text;html=1;align=left;verticalAlign=middle;whiteSpace=wrap;rounded=0;" parent="1IgViTsUdd26qkvO1Bmj-33" vertex="1">
          <mxGeometry x="5" y="38.360000000000014" width="130" height="30" as="geometry" />
        </mxCell>
        <mxCell id="1IgViTsUdd26qkvO1Bmj-40" value="Distributed Selenium Grid" style="text;html=1;align=left;verticalAlign=middle;whiteSpace=wrap;rounded=0;" parent="1" vertex="1">
          <mxGeometry x="720" y="-120" width="200.77" height="30" as="geometry" />
        </mxCell>
        <mxCell id="1IgViTsUdd26qkvO1Bmj-41" value="" style="group;spacingRight=8;" parent="1" vertex="1" connectable="0">
          <mxGeometry x="720" width="310" height="95" as="geometry" />
        </mxCell>
        <mxCell id="1IgViTsUdd26qkvO1Bmj-42" value="" style="rounded=0;whiteSpace=wrap;html=1;dashed=1;dashPattern=1 4;" parent="1IgViTsUdd26qkvO1Bmj-41" vertex="1">
          <mxGeometry width="310" height="80" as="geometry" />
        </mxCell>
        <mxCell id="1IgViTsUdd26qkvO1Bmj-43" value="&#xa;" style="shape=image;verticalLabelPosition=bottom;labelBackgroundColor=default;verticalAlign=top;aspect=fixed;imageAspect=0;image=data:image/png,iVBORw0KGgoAAAANSUhEUgAAAEYAAABgCAYAAACg2wSvAAASA0lEQVR4Ae2dB1RU19bHs9bnUxNFfbZnSdS8SMIXU3xPk2CLqIliNIS8F0uM5hmjebaHWIIYYizBALEGFRRFpYlYQIoivZeh16H3MtShV5H/t/bx3Ssg6swwMwxrfXet/7rMLXPP/c0+e59z7rmbl/D/S68EXup1q4ptDAgIgK6uLvT19VFTU6OU0qk0mLS0NAbkpZdeAqdRo0bh0KFDaGlpUSgglQQjEomwdetWHsb48WNx7PBerP7nCn7bhAkTcPr0aYXBUSkwVE3IGoYOHcoAjBw5Art3foesJD8UZoQwed69Au2lWjygadOmwdHRUe6AVAYM/fpkBVyV2bxxDWLDXHkgHBhu7WRnjrmas/njZ86cCU9PT7kB6ncwLi4uoF+dA6L96UKEB9xCYWaoRLpkYYJ3Zmjw52tpaSEiIqLPgPoNDEUaTU1N/obmas6C6y0rFGWFyaRTZkYgX8QBpihGzlvWRelgekYa9emv47KFGYqzIvqsnJQgHDbSB/kmDhA5cXLm0i5KA9NbpDE5aoDi7Ei5Sxjngz16WzB0yBAGiJy5oaGhVG0ghYPpLdLs2bUFuWmhKMmNUqjiBZ7Ysmkdbz3UBjIxMZGoDaRQMD0jDRUyIcoLpXkxSpUgxA26Oto8IIp+lpaWz61dCgFD7YqukWb5ssWICvWAKD+uX+V73xGLtebzgKiMFBV7W+QKhiINtSc4xzdvzoe4d9cOZQWJKiVnJ2vMnvWknFRmKnvXRS5g4uPjoa39xFTV1d/Atct/oLwoWaVFZaSycj8ktYHoXmjpExiKNBs3buS/+C/jx+G46SFUlAgHlMxPHwOVnQBRBKP7kgkMRRoKf0/6NCNhsHcnSvKSUFWaMeDUVFeB+rpqvPfuOwwOVSupwFBXnyINhT3O/Lb98B3SksJRXZY14FRfU4r21ibUVxcj4v4Z/P09denB9Iw0Kz5bhoTYYIgrcgec6sTFaGttRGtzHeKDbPDAbi88bXdLB6ZnpFkwfw58HtxFbVXBgFO9uATtbU1ob2tGeqwHvK8fgJe9gXRgekaaN99Uh4PdZRDtgai2tkYGpCA9HAG3jeFz42fpwDwVaf4yHmdOmaGhRjQg1d7SiI6H7RDlJyH8/ln43zaGn9NhycH0jDSjRo7ET4Y/oqq8CI11FQNOba0NeNjeirrqEkT7XUOw60kEOptKB8bB3r5bpNm5Yytys4VoaqgacGptqUfHwzY0NYiRKnBHuOcFhLqbywZm8OA/sTD1+crPkJaagOZG8YATRRgC0t7WgpyUEET72ULgbd03MNQmGT9GDf4OB9FUX8XCGF1oQKi1AY862pkfKc1PRmLYHcQF3ZAfmAnjRiHozm8MTkNtBdpaGlReDEhHO8TlBUiP90FKpLtiwET5XEDQHVM8uLwHjbVVrFVILUNVEwHpfNQB+gHz0qOQmeCPtFgvxYKJ8rVCmNspPLDei0ZxGR62NauMCMijRx1obWlEaX4K8tOjkJ0SqjwwMX7WCL/3B1zNtyA7zouFPQp9/aWO/wJ52N6G6vIClOQlozArrn/AxAVeQ2zANXjb7Ief3UE01lYwr0+eX3lqR2fnI2YlDTUVqCzNQVlRRv+DSQhxQFKYEyLunYPb2R+QE++DRx0PlaLOzk6QWprrUVNVguqyAtUDkyJwRkqkM3ztD8Lf/hfUi0XsV6T6Lm9xQKjaNtRWoU5cptpg0mI9kJnogzh/W9z9YxOCnIxRlpfEogNFiD6rsxPo7GTtkdbmejQ11KChtlK1wNy+agyPGyfAVSWyGA5MTmowCjIESAi6Aa8r++B5cRfykoOZLyB/IL0eV5lHHR1obW5ES1M9WprqVA9M6P3zGDTof/DnUWow/nkb8zG9gSnOTUBZoRC5KcEIcjoG17NbkBbpiuZ6MfMNXJV40ZqqYlsLAanrJpW0GB3t+Rg6ZDDU1IZB+5O5iA1xespiODAUKcSVhSgrSEHUPQu4nN6Ie5Y7EOdtjdLsWBbBgE50E3OsjxiQ5oYa9CaVBEPtmA1rtKE2/BVQB3PqaxPhct2c+RiuKvUEUycWobG+mv3qVSVZEIY7I+D6Edw0XQ0/OyMII+4y/0EW1NbSjKZ68Qulcj6GwFA75rL5zxg7+vHAt9rwYdBZsQSRQXeZj3keGKoa1MvlVJIdi3SBGx62taCxrhqNdVUSSWXBkPP1d7sIjTdfB4GZPHkytm/fhuMmR/BiMM1sKJHGV0nl+Uloa25gkYZuWFKpVLgW+FyBwPdKt6jk6X4TTY0NqKwogri6Ar+bmWL/Pj1kp8czH9O1KpHFtLU2dVNZfhJamxtQX1MulVQKjMPVc2x+m4v9cT4qiSvyUF9bjIqyVFRXZqKyohgmJr/hlVdewdo1XyFaEML7GAaG4HRRWV4iWpvqUVctkloq0/ItzY3DcTNjvDtDHb8abQOF66wkH/booblJjOamKtCoe2trK6teNNClpqaGiRMnQF9fD4LIUFAjrasIDIXk2qoSqaVSYG5ct8HbGm9g8ccfQWfFIoR427GoVFmaheaGalZNmpvqYWZqjOHDh2HYsGH808kRI0ZgzJgxuH3TkW+biPIS0NJYBzFVRRmkEn0lspjK0nQc/mk7Ro8eiZXLtTD1tUnYo7cJwjjfp6KSqDgLFufO4OMF8zFo0CBmPWRFBEtUUoDmxlqIcmksuRbV5YWySRU6kYWZkaDnurGhN+FwxQyvvToR77+rAe1PP8bUKZNx8ZzZM6NSdaUI165exrJln+LI4YNstJ5G7EW58QxMVVk+ZJVKDDuQ1TTWVyE61AXOjmfxle4yDHvlZSxeNA9/m/kO3lR/AxfOnWBDAdTyZVGprgpN9dW9SpQTz1q4laW5kF0qMh6TmeDFfvGk2AC43bLEKbOf8O4MDYwYoYaln2hh1t/eZw7316MHUS7KZ22TZzXeSnPi0NwgRkVJVp+kMgNVqQJn1k6pLC/CfVdbXLM6gZ3bvsPkSRPx8stDQQ/5lyxeiLFjxmDtmlVwdLBhg9Q0UN1VBIasqawovc/q96HNrsMOhVkCNDXWIS0lDjbW5rhkeZJNFtL86PF8/nlzNaH7xQpoLVwAikrrvl6NwrwMNp5CjbSSrFjWDRAVCNFXqRQYbjymvCQTLc2NSE2OhauzHZxv2eLSRXOsXvUlpk55DWpqw7FyxTLMnfMhDA32ora6lKkkK4aBKc1LQV+lkmCod12UFcOGG9vb21BYkI3wUG8E+LkjOPA+bt+0xYH9uzFu3BjsN9iDmqpipuKsaDTWVqI4J1Eu6tenBF2rEmcxXYcdyovSmMOlxxri6nLkZqcgMTYYackR0Nfbiv0/7oa4opCpODOa+Ry6IXmpX54r0bDDi8DQCB61LarL89FQV8mGJTs6HqKutgr79urBYJ8+20f7izOj0FBTjoLMGLlJxcFko6osl9djSBW4ZHUBFudO89uLMgWoF5chP00gVyn9SaSkFkPtksrS7BeqKD2S9apzU8MgT2WnhCj3Ea2kYMqLMyCJCtMjUFddCroReUtpD/W5oc0X+RhRYSrKitIkUmF6OJv2lZUUCHlLJcAEed/EXSdr1okUFaRAVJAqkQqE4aitKkZmgp9CpJRpIM+ymMAHDvjP7p3YZWKIL9bqgGYwSap8YRhqK4uQHuetEPUrGNNjP6NUXA73OD98c2wnfjn0I0pyEyRSfmooaioLIYzxVJgUOqOKJg49y2LMTH9BQr4Q3skhOOtri2+3r0dxTpxEyk8NgbiiAKlRHgpTSqSb4qaaPQ/McTMjHLb4DRcCHGHiaYVtBv9GYVaMRMpLDYa4PB8pka4KlUImJ9IcvOeBodkO6zeuwnL9tdDa8BncXWxQkBEpkfKSgyAuy0NSuLNC1W9gqK90z8UGvvcckZcWLrFykwNQXZaHhNDbCpfcp7NKYjH00neuMFRq5SQFoFqUg/hgJ4WrX8BkJweC4EitRH9UibIRF+igFEX72chnZjhNgJbEYrKTAyCLchL9UFWahRh/W6VIuWASvJGV6CeTchJ8UVmSiSjfa0qTwPty398lkMRiMuK9kJngLZOyE3xQWZIBgY+18iRvMCeO7sS6r5ZC4HeNf6gvjPFAepynzMqK90ZFcQYiH1gpVeGelrK/lkOPU3tazL6d6/DejOlwvX6KPdQXxrgjLfaezMqK90JFcRqooMqWJO8rnTdej0kTHuef4V8v7g0Mjcc4XfkNGurTYHxwJ1Kj3SCMdpdZmXFeoDHisHvnlK5Q9z+e+SLXjfM7oL3oSToDyvdAr1Gz9657grl+8RBsLA6yMd/oAHvorliMD2a9A4+b55Ea5SqTMuM8UV4kRKiHufLVCxgX6334+ssFGDJkMJul0TONXK9g3BzM8O7bb0Dv32uYj0mOvIOrlr/i9WmTsWHt54jwtUeKwEUqZcZ6orwwFSFup/tFwa4n2DuRDxwPY8s3SzFCbTg/bYUSD9JLsl2XXsFwvetN63UwT3MmAjwug+CQDPS/w6SJ46G/fT3CfWz57dz+Z60zY++jrDAFVMD+kuHOVRg75s88kLVr1yIvL68rD/7v54KhoU2LkweYn/n9qD6Swm8xhXlfw/cbdDF2zCis/nIpHtyx4Pdxx/RcZ8TcQ1lBMoJcfle6jA3/xSZYkssgdc36wZPo8UevYC6eMsDsmRrwdT2PxNAb8HO7yCZCvzdDHXZWxkgMc2KKCrDHzz9uxqSJ45hlHTXahlCvK/x+7jhap8d4MDD0iq+yZGG6HbNn/i9vIdLkyusVDFUlqzOGmDZ1Es6fNERCqCOT7cWjIDirdD+Br5slv53203E6ny1kk6bnffQ+jPZ9D4G/LX9MejRlHEpEwO1jCpejxT4snNs90kibXfGZYChcB9+3At3kN6u1WWOPqhbJaO8mNjFaZ/nHoJmd3HZuff6EAVbpLoHthSP8vvRodwbG/9avUJRuX9qP1V8s5C2EIg1lL5ElYelzwcQH2yE+2B77/kONn3EwPbSDfaZtpCMHfsC0KZOwaMEsnD9u0G0fdwy3To92A01Q9Lt5RO5yvXoAG9d8wodeymtDOTsp+4CsCwNDs77JKe34XpcfwYsNvIa4IFtePi5nsWyJJquzjtbG/HY65qTxLsz98D2MGT0SOssXsM9dz6W/06L+C8bpEPzkqB0bl2Pc2CeRRtaEgD0BMjBU/4YMftzQWbl0DhsMp/ch4wJtnpLVmQN4a/oU6GgvgOPlX7vt93E2x2HDzVg0fxbzNV33p0W5QpQXD98bB+UiI71/YPLE8Xy16WsKyV7B0EbqH3CNnjmzZyDQ/TzIap4lAkCAZs3UwEljvaeOC/Sw6LaNwNCERx9Hoz7pxMH17LpdQy+VXd4LsxjuSykP5pTXXmW/gvpfJ8PN8XfEBFx5ri6eNoDW/L+zDti6rz4Ffe7tHKHgLgNDyWxkkaXJJsz54G3eQjQ0NJ6Zw467n76su4GhL6KmMZfEavQoNZib7kaMv/UL5XbdDHt2rMWsmW8xX/PPz7UQ4HaWP4+ByYmFt8N+qWR3ZiuWLHifByJJ1sO+AOHOfQoM7aDwtnTpp3xh5sx+G24OpojxuyyRvG6dxAH99d3OEQpcUJITy1IfUfqjF+mO1S58tXIuH2ko9EqaJ5O7ub6sewXDfSG1ATi/M/hPg7Bj8z8Q5mmBaL9LUusxmBh42f/4XLlf3Y3N65bw16XQq8zs8ty9PxcMHURV69sN63nrmfrqeJib7EK0r5VUEkaSxcSwRFmURaw36W1a2q2TR8kHn9XJ425AUesXguEuTJ5fffqT9Isz3poCY6PNiPK9KJGEkc4oyYnGA9s9T+mXXTp4fcokHj6lp+RSO3LXV/ZaYjBcwaiejxs7mr+J0aOG419rlsHV/tjjxy/0mLcXcWAo3xwnswOrMOv9N/nv6i0ZKHddZa+lBsMVkBqF8+fN4W+K2hULNN/B8cNb4en0+1NwGJjsaHja6MPK9Ft8rPk4fSOdR8OJ0nbyuHIoai0zGK5A1Pb5Yctm3llyDS8aXF+yYCb2630NO0sjpEbeQXyEJ3SWfcDDVPQ/XeDKKMu6z2C4i1KIv3r1Kj5ZovUUJIJF729zSUvl0cnjrquotdzA9CwgWRKln97wzTpM/+tU3kp6G1/tea4qfFYYmJ43R2G/L8MAPb9P0Z//D9F+U+cGEtmGAAAAAElFTkSuQmCC;spacingRight=40;" parent="1IgViTsUdd26qkvO1Bmj-41" vertex="1">
          <mxGeometry x="235" y="18.360000000000014" width="36.46" height="50" as="geometry" />
        </mxCell>
        <mxCell id="1IgViTsUdd26qkvO1Bmj-44" value="&lt;div&gt;Node&amp;nbsp;&lt;/div&gt;&lt;div&gt;Количество: 4 сервера&lt;/div&gt;" style="text;html=1;align=left;verticalAlign=middle;whiteSpace=wrap;rounded=0;" parent="1IgViTsUdd26qkvO1Bmj-41" vertex="1">
          <mxGeometry x="5" y="38.360000000000014" width="130" height="30" as="geometry" />
        </mxCell>
        <mxCell id="lnH2pqq7v-T5iQEzN2tc-1" value="" style="rounded=1;whiteSpace=wrap;html=1;arcSize=2;strokeColor=#A9C4EB;" vertex="1" parent="1">
          <mxGeometry x="-320" y="80" width="520" height="530" as="geometry" />
        </mxCell>
      </root>
    </mxGraphModel>
  </diagram>
</mxfile>
